<svg id="construction-illustration" xmlns="http://www.w3.org/2000/svg" width="1000" height="615.084" viewBox="0 0 1000 615.084">
  <path id="Trazado_74" data-name="Trazado 74" d="M1011.07,482.814a204.92,204.92,0,0,1-6,49.446q-2.021,8.176-4.7,16.012a189.1,189.1,0,0,1-7.573,18.95q-2.165,4.687-4.576,9.186a123.582,123.582,0,0,1-10.332,49.659,128.022,128.022,0,0,1-62.131,64.016,130.687,130.687,0,0,1-55.466,12.735H200.917a166.133,166.133,0,0,1-83.56-22.337l-.391-.221q-5.425-3.175-10.579-6.724a165.909,165.909,0,0,1-21.709-17.9,161.551,161.551,0,0,1-23.866-29.571A157.8,157.8,0,0,1,36.54,541.82c-16.089-28.23-25.47-62.046-25.47-98.383,0-45.847,14.909-87.669,39.4-119.329a167.76,167.76,0,0,1,16.734-18.619,155.726,155.726,0,0,1,19.137-15.664,148.9,148.9,0,0,1,16.98-10.188c2.454-1.248,4.916-2.428,7.42-3.523,2.2-.976,4.423-1.885,6.673-2.742q4.05-1.537,8.2-2.827t8.193-2.258q5.943-1.452,12.09-2.36c3.4-.5,6.792-.849,10.188-1.112,2.7-.2,5.425-.314,8.167-.348h1.486c3.022,0,6.028.119,9.008.323.314-.628.654-1.265.968-1.885,1.189-2.267,2.42-4.525,3.659-6.733a.213.213,0,0,1,0-.059c.212-.391.424-.773.645-1.146,1-1.808,2.046-3.6,3.116-5.374.492-.849.976-1.647,1.477-2.445a6.5,6.5,0,0,1,.348-.577q.764-1.273,1.554-2.547,3.931-6.283,8.176-12.345l.722-1.036c.441-.628.849-1.24,1.341-1.868,1.172-1.639,2.377-3.286,3.591-4.9.849-1.155,1.7-2.3,2.615-3.4q3.311-4.245,6.792-8.49t7.234-8.38c.34-.382.679-.756,1.036-1.129l3.625-3.956h0c.178-.187.331-.357.5-.526h0c.433-.467.849-.934,1.316-1.384,1.944-2.063,3.939-4.084,5.943-6.1a323.64,323.64,0,0,1,32.517-28.331c.45-.357.908-.7,1.358-1.036,2.156-1.622,4.347-3.226,6.537-4.805a344.108,344.108,0,0,1,37.7-23.518c.9-.518,1.817-1,2.742-1.477a359.982,359.982,0,0,1,36.075-16.607c6.716-2.657,13.584-5.153,20.5-7.437,4.6-1.511,9.22-2.946,13.9-4.3q10.969-3.158,22.091-5.663a393.387,393.387,0,0,1,66.427-9.05q10.188-.518,20.605-.535A394.794,394.794,0,0,1,589.2,100.325a3.583,3.583,0,0,0,3.082,1.6h2.853c1.24.34,2.471.679,3.71,1.036q10.383,2.989,20.47,6.529l1.7.611a365.453,365.453,0,0,1,48.317,21.225,348.667,348.667,0,0,1,40.455,24.995q2.98,2.14,5.875,4.313,3.515-2.25,7.149-4.313A140.612,140.612,0,0,1,752.418,143.7a135.078,135.078,0,0,1,66.427-2.6c28.23,5.986,53.785,20.843,74.424,41.975a173.664,173.664,0,0,1,22.321,28.34c.467.73.934,1.469,1.384,2.216a186.787,186.787,0,0,1,14.212,28.332c.144.365.289.7.416,1.061a196.181,196.181,0,0,1,8.745,28.315c.1.492.221.976.323,1.469a203.875,203.875,0,0,1,4.177,28.332,5.5,5.5,0,0,0,.068,1.044q.535,7.395.543,14.943c0,4.5-.153,8.966-.433,13.4,0,.484-.068.985-.11,1.486-.076,1.282-.187,2.547-.3,3.838a161.132,161.132,0,0,1,18.152,17.125q3.71,4.05,7.183,8.405a178.813,178.813,0,0,1,18.508,28.332A198.825,198.825,0,0,1,1011.07,482.814Z" transform="translate(-11.07 -87.76)" fill="#364f6b" opacity="0.1"/>
  <path id="Trazado_75" data-name="Trazado 75" d="M933.964,787.9c0,5.8-19.977,11.232-54.838,15.9H219.75a166.136,166.136,0,0,1-83.56-22.338l-.391-.221c10.018-3.651,28.1-7.055,52.715-10.129h0l1.1-.136c11.037-1.35,23.373-2.632,36.856-3.846a8.391,8.391,0,0,0,1.027-.093h0q16.046-1.426,34.139-2.674c.382,0,.756-.068,1.138-.085q6.979-.5,14.246-.951h0l1.868-.119c35.276-2.19,75.375-3.939,118.862-5.094h.051q9.135-.255,18.466-.45,10.375-.246,21-.433c5.408-.119,10.884-.2,16.377-.289h.127c24.783-.374,50.389-.56,76.572-.56,64.746,0,125.942,1.18,180.169,3.3h.153c8.337.323,16.522.679,24.5,1.044l6.792.323q13.508.645,26.319,1.384h0C868.726,768.147,933.964,777.427,933.964,787.9Z" transform="translate(-29.903 -188.713)" fill="#6c63ff" opacity="0.1"/>
  <g id="Grupo_2" data-name="Grupo 2" transform="translate(527.551 335.349)" opacity="0.2">
    <path id="Trazado_76" data-name="Trazado 76" d="M688.143,749.627a16.119,16.119,0,0,1-.314,2.725q-8.864-1.409-17.829-2.547v-.73a14.331,14.331,0,0,1,2.123-7.2c1.749-2.768,4.406-4.5,7.335-4.406s5.468,1.987,7.038,4.848a14.322,14.322,0,0,1,1.647,7.31Z" transform="translate(-638.112 -521.207)" fill="#3f3d56"/>
    <ellipse id="Elipse_3" data-name="Elipse 3" cx="11.895" cy="9.084" rx="11.895" ry="9.084" transform="translate(31.986 225.231) rotate(-88.19)" fill="#3f3d56"/>
    <ellipse id="Elipse_4" data-name="Elipse 4" cx="11.895" cy="9.084" rx="11.895" ry="9.084" transform="translate(32.449 210.695) rotate(-88.19)" fill="#3f3d56"/>
    <ellipse id="Elipse_5" data-name="Elipse 5" cx="11.895" cy="9.084" rx="11.895" ry="9.084" transform="translate(32.904 196.16) rotate(-88.19)" fill="#3f3d56"/>
    <ellipse id="Elipse_6" data-name="Elipse 6" cx="11.895" cy="9.084" rx="11.895" ry="9.084" transform="translate(33.359 181.624) rotate(-88.19)" fill="#3f3d56"/>
    <path id="Trazado_77" data-name="Trazado 77" d="M644.352,552.2a42.153,42.153,0,0,1-3.226-5.094l23.993-3.167-25.827-.62a43.622,43.622,0,0,1,.263-34.5l34.062,19.06-31.2-24.485a43.537,43.537,0,1,1,70.332,50.941,43.129,43.129,0,0,1,4.712,8.091l-31.49,15.112,33.392-10.044a43.588,43.588,0,0,1-8.337,40.676,43.537,43.537,0,1,1-68.4-2.156,43.537,43.537,0,0,1,1.7-53.81Z" transform="translate(-632.44 -482.747)" fill="#3fc1c9"/>
    <path id="Trazado_78" data-name="Trazado 78" d="M721.213,599a43.3,43.3,0,0,1-10.188,26.608,43.537,43.537,0,1,1-68.4-2.156C637.05,615.874,721.365,594.122,721.213,599Z" transform="translate(-632.44 -500.194)" opacity="0.1"/>
  </g>
  <g id="Grupo_3" data-name="Grupo 3" transform="translate(398.501 335.349)" opacity="0.2">
    <path id="Trazado_79" data-name="Trazado 79" d="M536.143,749.627a16.132,16.132,0,0,1-.314,2.725q-8.864-1.409-17.829-2.547v-.73a14.33,14.33,0,0,1,2.123-7.2c1.749-2.768,4.406-4.5,7.335-4.406s5.468,1.987,7.038,4.848a14.323,14.323,0,0,1,1.647,7.31Z" transform="translate(-486.112 -521.207)" fill="#3f3d56"/>
    <ellipse id="Elipse_7" data-name="Elipse 7" cx="11.895" cy="9.084" rx="11.895" ry="9.084" transform="translate(31.976 225.234) rotate(-88.19)" fill="#3f3d56"/>
    <ellipse id="Elipse_8" data-name="Elipse 8" cx="11.895" cy="9.084" rx="11.895" ry="9.084" transform="translate(32.44 210.699) rotate(-88.19)" fill="#3f3d56"/>
    <ellipse id="Elipse_9" data-name="Elipse 9" cx="11.895" cy="9.084" rx="11.895" ry="9.084" transform="translate(32.894 196.163) rotate(-88.19)" fill="#3f3d56"/>
    <ellipse id="Elipse_10" data-name="Elipse 10" cx="11.895" cy="9.084" rx="11.895" ry="9.084" transform="translate(33.349 181.628) rotate(-88.19)" fill="#3f3d56"/>
    <path id="Trazado_80" data-name="Trazado 80" d="M492.352,552.2a42.161,42.161,0,0,1-3.226-5.094l23.993-3.167-25.827-.62a43.622,43.622,0,0,1,.263-34.5l34.062,19.06-31.2-24.485a43.537,43.537,0,1,1,70.332,50.941,43.126,43.126,0,0,1,4.712,8.091l-31.49,15.112,33.392-10.044a43.588,43.588,0,0,1-8.337,40.676,43.537,43.537,0,1,1-68.4-2.156,43.537,43.537,0,0,1,1.7-53.81Z" transform="translate(-480.44 -482.747)" fill="#3fc1c9"/>
    <path id="Trazado_81" data-name="Trazado 81" d="M569.213,599a43.3,43.3,0,0,1-10.188,26.608,43.537,43.537,0,1,1-68.4-2.156C485.05,615.874,569.365,594.122,569.213,599Z" transform="translate(-480.44 -500.194)" opacity="0.1"/>
  </g>
  <g id="Grupo_4" data-name="Grupo 4" transform="translate(704.778 133.469)" opacity="0.2">
    <path id="Trazado_82" data-name="Trazado 82" d="M948.346,758.556a31.662,31.662,0,0,1-.62,5.162q-17.065-2.725-34.376-4.873v-1.4a27.594,27.594,0,0,1,4.092-13.864c3.4-5.323,8.49-8.66,14.119-8.49s10.528,3.829,13.584,9.339a27.617,27.617,0,0,1,3.2,14.127Z" transform="translate(-852.082 -318.967)" fill="#3f3d56"/>
    <ellipse id="Elipse_11" data-name="Elipse 11" cx="22.906" cy="17.498" rx="22.906" ry="17.498" transform="translate(61.489 433.429) rotate(-88.19)" fill="#3f3d56"/>
    <ellipse id="Elipse_12" data-name="Elipse 12" cx="22.906" cy="17.498" rx="22.906" ry="17.498" transform="translate(62.371 405.445) rotate(-88.19)" fill="#3f3d56"/>
    <ellipse id="Elipse_13" data-name="Elipse 13" cx="22.906" cy="17.498" rx="22.906" ry="17.498" transform="translate(63.262 377.462) rotate(-88.19)" fill="#3f3d56"/>
    <ellipse id="Elipse_14" data-name="Elipse 14" cx="22.906" cy="17.498" rx="22.906" ry="17.498" transform="translate(63.165 348.268) rotate(-88.282)" fill="#3f3d56"/>
    <path id="Trazado_83" data-name="Trazado 83" d="M864.053,378.519a84.288,84.288,0,0,1-6.206-9.789l46.186-6.1-49.71-1.2a83.967,83.967,0,0,1,.492-66.427L920.4,331.7l-60.059-47.137A83.814,83.814,0,1,1,995.735,382.67a83.807,83.807,0,0,1,9.076,15.579l-60.628,29.113L1008.462,408a83.84,83.84,0,0,1-15.987,78.236,83.814,83.814,0,1,1-131.682-4.152,83.84,83.84,0,0,1,3.26-103.579Z" transform="translate(-841.186 -244.965)" fill="#3fc1c9"/>
    <path id="Trazado_84" data-name="Trazado 84" d="M1012.042,468.588a83.492,83.492,0,0,1-19.527,51.229,83.814,83.814,0,1,1-131.682-4.152C850.017,501.054,1012.339,459.19,1012.042,468.588Z" transform="translate(-841.192 -278.524)" opacity="0.1"/>
  </g>
  <path id="Trazado_85" data-name="Trazado 85" d="M157.82,579.59l8.906-.025h12.557L195.16,321.652,352.388,59.282l-6.835-7.335V33.37l-170.04,282.2Z" transform="translate(-23.812 -5.038)" fill="#f1c0c0"/>
  <path id="Trazado_86" data-name="Trazado 86" d="M169.43,582.868h11.606l15.877-257.913L354.141,62.585l-6.835-7.335L185.128,321.025Z" transform="translate(-25.565 -8.342)" opacity="0.1"/>
  <path id="Trazado_87" data-name="Trazado 87" d="M126.91,676.053l407.4,31.176.348.026,394.273-24.248.3-.017V666.34l-434.439-7.972-362.452-.348h-2.649l-.289,1.868Z" transform="translate(-19.145 -99.353)" fill="#f1c0c0"/>
  <path id="Trazado_88" data-name="Trazado 88" d="M126.91,676.053l407.4,31.176.348.026,394.273-24.248.3-.323v-16h-.348l-394.57,13.177L132.335,658.02h-.059l-.713.467-2.165,1.4Z" transform="translate(-19.145 -99.353)" opacity="0.1"/>
  <path id="Trazado_89" data-name="Trazado 89" d="M126.91,676.136l407.4,31.176V679.948L131.563,658.57l-2.165,1.4Z" transform="translate(-19.145 -99.436)" opacity="0.1"/>
  <path id="Trazado_90" data-name="Trazado 90" d="M378.88,51.633,558.488,244.41l-5.552,339.1,15.257,1.842.255.034H583.7l1.825-326.411L921.848,371.311l5.671,200.027,12.277,1.375,4.16.467-9.628-215.742L582.753,234.009,389.977,33.6h-11.1Z" transform="translate(-57.189 -5.073)" fill="#f1c0c0"/>
  <path id="Trazado_91" data-name="Trazado 91" d="M620.65,291.7l1.384,6.24L958.353,410.281l5.671,200.027,12.277,1.375-9.628-205.563Z" transform="translate(-93.694 -44.043)" opacity="0.1"/>
  <path id="Trazado_92" data-name="Trazado 92" d="M378.88,51.633,558.488,244.41l-5.552,339.1,15.257,1.842,4.16-352.034L378.88,33.6Z" transform="translate(-57.189 -5.073)" opacity="0.1"/>
  <path id="Trazado_93" data-name="Trazado 93" d="M621.42,448.073l123.353,24.29.042.008,216.048,42.561,9.891-3.965-.034-.7-.645-13.8L621.547,426.05Z" transform="translate(-93.81 -64.328)" fill="#f1c0c0"/>
  <path id="Trazado_94" data-name="Trazado 94" d="M766.76,480.61l216.048,42.561,9.891-3.965-.034-.7Z" transform="translate(-115.755 -72.566)" opacity="0.1"/>
  <path id="Trazado_95" data-name="Trazado 95" d="M776.49,350.56l3.337,183.675,1.724,94.232,15.189-.509,9.56-.323-2.971-274.417-6.588-2.19-1.443-.467Z" transform="translate(-117.224 -52.93)" fill="#f1c0c0"/>
  <path id="Trazado_96" data-name="Trazado 96" d="M776.65,350.51v.042l3.2,183.675,1.724,94.232,15.189-.509V350.51Z" transform="translate(-117.248 -52.923)" opacity="0.1"/>
  <path id="Trazado_97" data-name="Trazado 97" d="M502.9,491.491a19.35,19.35,0,0,1,2.547,1.656,16.854,16.854,0,0,1,2.547,2.793c3.642,4.712,7,10.188,6.648,16.131a6.563,6.563,0,0,1-1.893,4.67c-1.5,1.282-3.659,1.341-5.629,1.341-2.139,0-4.389,0-6.24-1.1s-3.4-3.252-5.586-3.2a2.858,2.858,0,0,1-.934,0c-.756-.246-.908-1.24-1.4-1.868-.849-1.129-2.64-.849-3.973-.357s-2.81,1.231-4.126.662a4.287,4.287,0,0,1-1.791-1.791c-3.15-5.094-3.821-11.215-4.415-17.133-.365-3.6-3.15-15.877,4.534-13.083,3.4,1.223,6.571,3.668,9.662,5.459Z" transform="translate(-81.55 -146.953)" fill="#3f3d56"/>
  <path id="Trazado_98" data-name="Trazado 98" d="M498.132,494.178a3.787,3.787,0,0,0,4.661-.187,7.022,7.022,0,0,0,2.267-4.4c.849-.263,1.282.849,1.825,1.528.951,1.155,2.887,1.138,3.753,2.369.6.849.467,2.029.891,2.988.552,1.24,1.919,1.885,2.853,2.887a9.831,9.831,0,0,1,1.868,3.727l1.392,4.177a20.643,20.643,0,0,1,1.273,5.408,7,7,0,0,1-1.613,5.171c-1.868,2.012-4.933,2.224-7.641,2.165a9.829,9.829,0,0,1-2.683-.314c-2.4-.747-3.939-3.167-4.576-5.6s-.569-4.992-.942-7.488a29.352,29.352,0,0,0-2.123-7.115c-.747-1.766-2.8-4.4-2.768-6.274C497.181,493.218,497.623,493.779,498.132,494.178Z" transform="translate(-84.375 -148.426)" fill="#3f3d56"/>
  <path id="Trazado_99" data-name="Trazado 99" d="M499.94,482.924a14.02,14.02,0,0,1-.688-3.727c0-2.547,1.163-4.941,2.335-7.217l-9.7,1.316c-1.172.161-2.479.4-3.141,1.375a3.4,3.4,0,0,0,0,3.133,16.011,16.011,0,0,1,1.155,3.031,15.138,15.138,0,0,0,.314,2.725,5.772,5.772,0,0,0,1.248,1.757,58.867,58.867,0,0,1,6.928,10.29c-.059-.1,5.85-4.678,5.612-6.172-.136-.849-1.842-1.868-2.386-2.683A13.662,13.662,0,0,1,499.94,482.924Z" transform="translate(-83.135 -145.772)" fill="#be6f72"/>
  <path id="Trazado_100" data-name="Trazado 100" d="M557.563,358.04V366.4l-143.2,27.932-7.429,4.5H381.3v-4.712L522,360.129Z" transform="translate(-57.555 -54.06)" fill="#f1c0c0"/>
  <path id="Trazado_101" data-name="Trazado 101" d="M557.563,367.89l-143.2,27.932-7.429,4.5H381.3l141.742-30.335Z" transform="translate(-57.555 -55.547)" opacity="0.1"/>
  <path id="Trazado_102" data-name="Trazado 102" d="M460.339,724.7a11.1,11.1,0,0,0-13.5-2.87,3.556,3.556,0,0,0-1.239.968c-.849,1.189-.306,2.827-.229,4.3.2,3.583-2.657,6.495-5.221,9a12.345,12.345,0,0,0-3.4,4.6c-.62,1.825-.161,4.143,1.5,5.094a6.257,6.257,0,0,0,2.326.645,25.106,25.106,0,0,0,8.235.229,8.922,8.922,0,0,0,6.537-4.551,4.8,4.8,0,0,1,1.1-1.808c1.494-1.18,3.787.2,5.485-.637,1.4-.7,1.46-1.791,1.477-3.235C463.463,732.446,462.869,727.929,460.339,724.7Z" transform="translate(-75.303 -183.322)" fill="#6c63ff"/>
  <path id="Trazado_103" data-name="Trazado 103" d="M485.311,723.436a27.951,27.951,0,0,1,1.324,8.685c.076,1.7.127,3.515-.79,4.95a6.764,6.764,0,0,1-4.423,2.547c-3.54.73-7.641.042-9.925-2.768-1.749-2.148-2.114-5.094-1.791-7.879.272-2.284.849-4.958-.79-6.58-.425-.433-.976-.739-1.367-1.206a4.045,4.045,0,0,1-.255-3.871,16.818,16.818,0,0,0,1.333-3.829c.068-.628,11.5.442,12.548.959,1.435.7,1.214,1.885,1.647,3.311C483.426,719.743,484.581,721.534,485.311,723.436Z" transform="translate(-79.9 -182.208)" fill="#6c63ff"/>
  <path id="Trazado_104" data-name="Trazado 104" d="M481.25,581.113c2.241,1.452,3.107,4.3,3.456,6.953.959,7.259-.722,14.595-.849,21.922-.119,10.265,2.853,20.716.314,30.658-1.52,5.943-.229,12.735-1.656,18.738-.424,1.783-1.206,3.464-1.613,5.247-.849,3.863.042,7.9,1.24,11.682a12.066,12.066,0,0,1,.722,3.167,11.393,11.393,0,0,1-1.24,4.788l-5.094,12.047c-.569,1.35-2.81,1.571-4.245,1.749-2.7.323-5.714.552-7.862-1.121s-2.666-4.474-3-7.089a108.676,108.676,0,0,1-.849-15.138,12.472,12.472,0,0,0-.348-3.931c-.467-1.452-1.494-2.708-1.774-4.245-.357-1.987.654-3.939,1.027-5.943a17.907,17.907,0,0,0-.085-5.51c-.331-2.717-.713-5.434-1.146-8.134-.611-3.778.263-7.505.849-11.292.552-3.557-.153-7.183-.849-10.715a29.537,29.537,0,0,1-1.061,8.49c-.45,1.35-1.1,2.64-1.486,4.016-1.74,6.172,1.97,12.65,1.443,19.043-.246,2.988-1.418,5.943-1.087,8.889.229,2.156,1.231,4.135,1.919,6.189s1.044,4.406,0,6.325c-2.759,5.213-.7,12.3,1.774,17.651a23.831,23.831,0,0,1,1.307,2.938c.73,2.411.119,5,.314,7.514a4.738,4.738,0,0,1-3.982-1.2c-.374-.391-.679-.849-1.044-1.256a10.366,10.366,0,0,0-3.549-2.216,4.662,4.662,0,0,0-2.547-.586,5.1,5.1,0,0,0-2.42,1.5,23.708,23.708,0,0,1-2.666,2.029,3.157,3.157,0,0,1-1.358.6,1.2,1.2,0,0,1-1.248-.637,1.51,1.51,0,0,1-.093-.442,67.2,67.2,0,0,1-.5-7.726c0-4.44-5.315-7.5-5.986-11.886-.535-3.54.458-7.149.127-10.714a52.117,52.117,0,0,1-.637-5.468c0-1.189.272-2.352.365-3.532a26.42,26.42,0,0,0-.059-3.931l-.263-4.1c-.255-4.05-.535-8.185-2.131-11.886a40.386,40.386,0,0,1-3.311-13.652c-.17-2.972-.059-5.943-.4-8.923-.306-2.691-.985-5.366-.79-8.066.161-2.089.849-4.109,1.01-6.2.331-4.016-1.2-7.921-2.394-11.767s-2.08-8.108-.509-11.818a3.881,3.881,0,0,1,1.087-1.579,4.738,4.738,0,0,1,2-.747,155.465,155.465,0,0,1,44.335-2.827,14.723,14.723,0,0,1,6.835,2.131Z" transform="translate(-73.741 -161.854)" fill="#3f3d56"/>
  <circle id="Elipse_15" data-name="Elipse 15" cx="13.601" cy="13.601" r="13.601" transform="translate(345.709 301.883)" fill="#be6f72"/>
  <path id="Trazado_105" data-name="Trazado 105" d="M430.247,476.989a4.855,4.855,0,0,1,0,2.369,5.365,5.365,0,0,1-.891,1.494A38.368,38.368,0,0,1,425,485.59a7.887,7.887,0,0,0,4.067,4.016,23.613,23.613,0,0,0,5.612,1.6,5.882,5.882,0,0,0,5.5-.951l7.556-4.525a15.1,15.1,0,0,0,3.141-2.267,7.735,7.735,0,0,0,2.19-5.315,1.461,1.461,0,0,0-.272-1,1.783,1.783,0,0,0-1.036-.433,9.208,9.208,0,0,1-5.943-5.187,27.472,27.472,0,0,1-2.063-7.87l-8.057,4.245c-1.2.637-2.386,1.273-3.625,1.825-.79.357-2.386.654-2.946,1.375C428.056,472.439,429.967,475.385,430.247,476.989Z" transform="translate(-73.569 -144.516)" fill="#be6f72"/>
  <path id="Trazado_106" data-name="Trazado 106" d="M424.557,485.039a8.957,8.957,0,0,0-2.606,3.523c-.526,1.7,0,3.49.475,5.171a154.261,154.261,0,0,1,5.094,21.9c.713,5.094.976,10.265,1.324,15.418.713,10.511,1.749,27.27,3.133,37.713,5.094.229,10.061-1.257,15.112-1.8,9.441-1,19.162,1.291,28.408-.849-2.241-8.855-4.483-23.976-6.724-32.823a62.63,62.63,0,0,1-2.055-10.655c-.2-2.589-.076-5.187-.042-7.794.076-5.094-.2-10.188-.484-15.282-.323-5.943-.645-11.886-2.055-17.7a3.294,3.294,0,0,0-.985-1.944c-.849-.62-1.953-.4-2.963-.263a12.888,12.888,0,0,1-8.813-2.089c-1.121-.764-2.623-1.7-3.668-.849a3.651,3.651,0,0,0-.849,1.808,9.042,9.042,0,0,1-5.315,5.238,26.6,26.6,0,0,1-7.522,1.545,3.693,3.693,0,0,1-2.335-.263c-1.206-.739-1.29-3.4-2.81-3.574C427.546,481.312,425.457,484.181,424.557,485.039Z" transform="translate(-73.075 -146.436)" fill="#3f3d56"/>
  <path id="Trazado_107" data-name="Trazado 107" d="M441.965,505.872c-3.133-3-4.508-7.344-6.792-11.037a24.57,24.57,0,0,0-5.867-6.453,17.5,17.5,0,0,1-3.192-2.708c-.807-.993-1.418-2.318-2.64-2.7a3.192,3.192,0,0,0-2.861.79,28.151,28.151,0,0,0-2.122,2.258c-3.6,3.727-9.925,4.245-12.778,8.558a7.014,7.014,0,0,0-1.52,3.184,24.672,24.672,0,0,0,4.534,17.744,6.028,6.028,0,0,0,3.141,2.547,9.831,9.831,0,0,0,.611,4.669,124.882,124.882,0,0,0,5.782,15.749,38.109,38.109,0,0,0-1.138,6.1c-.594,5.187-.042,10.451-.6,15.647-.458,4.245-1.7,8.38-1.74,12.633,0,.679.059,1.486.645,1.834a1.953,1.953,0,0,0,1.01.212l10.443.314c6.062.178,12.183.357,18.152-.764a7.556,7.556,0,0,0,2.284-.722c2.021-1.129,2.691-3.676,3.014-5.943a51.792,51.792,0,0,0,.5-8.881c1.265,4,2.768,8.134,6.588,9.866,2.021.917,4.33.849,6.546.79a123.256,123.256,0,0,0,14.255-1.469,1.876,1.876,0,0,0,2.08-2.182l.051-4.636c.1-9.416-2.233-18.415-3.141-27.788-.289-2.955-.263-5.943-.985-8.838-.3-1.214-.73-2.4-.993-3.625a25.915,25.915,0,0,1-.424-3.625l-.662-9.339c-.314-4.321-.764-8.49-1.1-12.8a61.969,61.969,0,0,0-1.817-12.447c-.739-2.547-2.275-5.434-4.933-5.748a10.168,10.168,0,0,0-4.143.891,16.743,16.743,0,0,1-10.188-.042,14.347,14.347,0,0,0-3.175-.849,3.116,3.116,0,0,0-2.9,1.206,4.356,4.356,0,0,0-.45,2.139C445.039,488.892,444.3,497.628,441.965,505.872Z" transform="translate(-70.395 -146.536)" fill="#6c63ff"/>
  <path id="Trazado_108" data-name="Trazado 108" d="M428.439,509.08c-3.914-4.126-7.93-8.329-12.973-10.952a10.362,10.362,0,0,0-6.444-1.426c-2.2.391-4.245,2.3-4.143,4.534.068,1.384.908,2.606,1.172,3.965.306,1.528-.136,3.158.34,4.636a7.846,7.846,0,0,0,1.7,2.606l6.011,7.123c2.547,2.972,5.094,5.985,8.371,8.04s7.522,3.014,11.122,1.554a13.67,13.67,0,0,0,6.1-5.6c1.494-2.377,2.547-4.975,3.948-7.429a36.889,36.889,0,0,1,8.49-10.3c-1.766-.458-3.982-1.1-5.094-2.547a8.419,8.419,0,0,1-.807-1.46l-1.375-2.972a3.4,3.4,0,0,0-2.547.959,21.349,21.349,0,0,1-1.893,1.927c-1.2.9-2.819,1.146-3.905,2.173a10.346,10.346,0,0,0-1.138,1.426A9.526,9.526,0,0,1,428.439,509.08Z" transform="translate(-70.53 -149.49)" fill="#3f3d56"/>
  <path id="Trazado_109" data-name="Trazado 109" d="M459.293,486.1c2.946-5.374,2.81-11.818,3.651-17.889a8.167,8.167,0,0,1,1.622-4.44c1.7-1.919,4.695-1.944,7.259-1.7.756.085,1.7.441,1.656,1.2a1.528,1.528,0,0,1-.382.722,20.2,20.2,0,0,0-4.194,11.139c1.333.925,3.4-.976,4.678,0,.849.713.458,2.123-.051,3.141q-1.774,3.54-3.659,7.03a22.576,22.576,0,0,1-3.88,5.6c-1.078,1.036-2.343,1.851-3.438,2.87-2.547,2.386-4.084,5.756-6.716,8.083a1.376,1.376,0,0,1-.849.433,1.426,1.426,0,0,1-.891-.4,12.872,12.872,0,0,1-3.209-3.88c-1-1.851-.849-2.394.73-3.7C454.572,491.964,457.451,489.46,459.293,486.1Z" transform="translate(-77.382 -144.26)" fill="#be6f72"/>
  <path id="Trazado_110" data-name="Trazado 110" d="M424,504.981c.509.314,1.138.671,1.7.408a1.766,1.766,0,0,0,.569-.552,19.985,19.985,0,0,0,2.411-4.194,1.612,1.612,0,0,0,.178-.679c0-.543-.484-.942-.934-1.257a34.607,34.607,0,0,0-7.718-3.668,15.925,15.925,0,0,0-6.962-1.375,6.639,6.639,0,0,0-4.644,2.36c-1.7,2.182,1.146,2.844,2.929,3.634C415.653,501.534,420.118,502.621,424,504.981Z" transform="translate(-71.013 -149.041)" fill="#6c63ff"/>
  <path id="Trazado_111" data-name="Trazado 111" d="M423.678,522.63a1.248,1.248,0,0,0,.357,1.07c.246-1.206-.076-2.479.178-3.693.374-1.825,2.148-3.2,2.3-5.035C423.262,514.335,423.7,520.66,423.678,522.63Z" transform="translate(-73.367 -152.257)" opacity="0.1"/>
  <path id="Trazado_112" data-name="Trazado 112" d="M582.585,358.04V366.4l-34.521,2.1-1.044-8.371Z" transform="translate(-82.577 -54.06)" opacity="0.2"/>
  <path id="Trazado_113" data-name="Trazado 113" d="M419.122,458.158c2.156-1.757.908-5.442,2.369-7.8a7.58,7.58,0,0,1,3.693-2.547,16.8,16.8,0,0,1,5.391-1.494,6.257,6.257,0,0,1,5.094,1.876c.552.628.925,1.392,1.443,2.046a5.519,5.519,0,0,0,5.349,1.851c1.129-.255,2.3-1.112,2.224-2.267A3.2,3.2,0,0,0,443.667,448l-2.428-2.691c-2.759-3.056-5.824-6.3-9.874-7.064-2.819-.535-5.705.221-8.422,1.129-1.1.365-2.326.908-2.632,2.021-.2.764.1,1.6-.076,2.369-.348,1.537-2.318,2.055-3.235,3.345s-.637,2.819-.9,4.245-1.027,2.819-1.121,4.3c-.059.891.391,2.547,1.392,2.87S418.5,457.1,419.122,458.158Z" transform="translate(-72.055 -140.652)" fill="#3f3d56"/>
  <path id="Trazado_114" data-name="Trazado 114" d="M443.734,447.358a25.471,25.471,0,0,0-4.517-10.324,18.092,18.092,0,0,0-8.04-6.385,11.513,11.513,0,0,0-10.01.79,14.535,14.535,0,0,0-5,6.308c-2.2,4.737-3.014,10.528-.458,15.078,1.019-1.24,2.768-.679,4.313-1.129,1.936-.552,3.574-1.842,5.417-2.649C431,446.594,437.791,448.581,443.734,447.358Z" transform="translate(-71.926 -139.413)" fill="#fed253"/>
  <path id="Trazado_115" data-name="Trazado 115" d="M417.478,449.343c-.2-1.528-.323-3.3.764-4.389a.552.552,0,0,1,.45-.2.586.586,0,0,1,.348.306,19.006,19.006,0,0,1,1.6,3.124,3.243,3.243,0,0,0-3.4,1.316" transform="translate(-72.397 -141.661)" opacity="0.1"/>
  <path id="Trazado_116" data-name="Trazado 116" d="M440.819,444.329l-.306-3.031a1.384,1.384,0,0,1,.06-.747.959.959,0,0,1,1.24-.34,2.547,2.547,0,0,1,.993.993,17.828,17.828,0,0,1,1.749,3.456,10.272,10.272,0,0,0-4.135.051" transform="translate(-75.897 -140.96)" opacity="0.1"/>
  <path id="Trazado_117" data-name="Trazado 117" d="M432.238,502.21v6.928l-5.85.391H395.62V502.21Z" transform="translate(-59.717 -75.828)" opacity="0.1"/>
  <path id="Trazado_118" data-name="Trazado 118" d="M414.938,480.816v7.318H378.32L281.04,366.276V360.52h20.393Z" transform="translate(-42.417 -54.434)" fill="#f1c0c0"/>
  <path id="Trazado_119" data-name="Trazado 119" d="M414.938,480.816v7.318H378.32L281.04,366.276V360.52h20.393Z" transform="translate(-42.417 -54.434)" opacity="0.1"/>
  <path id="Trazado_120" data-name="Trazado 120" d="M414.938,480.816v7.318H378.32L281.04,366.276V360.52l97.806,120.3Z" transform="translate(-42.417 -54.434)" opacity="0.1"/>
  <path id="Trazado_121" data-name="Trazado 121" d="M305.346,732.808a2.547,2.547,0,0,1-2.224,3c-2.36.8-4.865,1.588-6.537,3.4s-2,5.162,0,6.631a6.445,6.445,0,0,0,3.4.925c3.846.263,7.853.212,11.343-1.418,2.5-1.155,4.848-3.124,7.59-2.946,1.418.085,2.929.747,4.194.1s1.622-2.445,1.63-3.948a29.231,29.231,0,0,0-1.4-9.246c-.127-.408-5.527-.722-6.172-.849l-6.546-.849c-1.24-.161-3.914-1.1-4.89-.059S305.346,731.577,305.346,732.808Z" transform="translate(-53.971 -184.287)" fill="#6c63ff"/>
  <path id="Trazado_122" data-name="Trazado 122" d="M353.12,706.628a20.506,20.506,0,0,0,1.341,4.449c.908,2.309,2.072,4.763,4.3,5.884a7.669,7.669,0,0,0,6.554-.314,5.4,5.4,0,0,0,2.182-1.656,6.572,6.572,0,0,0,.849-3.812c0-3.286-.2-6.682-1.7-9.6-1.29-2.547-3.54-4.737-3.574-7.556l-7.734,1.494a2.208,2.208,0,0,0-1.138.45,1.961,1.961,0,0,0-.492.925A25.274,25.274,0,0,0,353.12,706.628Z" transform="translate(-62.681 -179.298)" fill="#6c63ff"/>
  <path id="Trazado_123" data-name="Trazado 123" d="M244.344,611.376c-.323,2.734-.187,5.663,1.24,8.023s4.432,3.922,7.03,2.98a1.027,1.027,0,0,0,.637-.484,1.2,1.2,0,0,0-.11-.849,12.531,12.531,0,0,1,.263-9.441c.17-.391.535-.849.934-.7a.849.849,0,0,1,.382.391,4.44,4.44,0,0,1,.594,2.343,8.714,8.714,0,0,0-.068,2.25c.161.73.942,1.418,1.622,1.1a1.7,1.7,0,0,0,.773-1.1c1.893-5.476,1.036-11.462.17-17.193a.9.9,0,0,0-1.01-.942c-4.007-.4-6.2-1.358-8.49,2.369C246.339,603.277,244.344,607.6,244.344,611.376Z" transform="translate(-46.27 -164.702)" fill="#6c63ff"/>
  <path id="Trazado_124" data-name="Trazado 124" d="M299.112,597.026c-1.189,4.941-2.386,9.942-2.462,15.019a69,69,0,0,0,.713,9.45l.891,7.352c.306,2.479.6,4.95,1.036,7.4a19.656,19.656,0,0,1,.45,3.846,20.594,20.594,0,0,1-.6,3.778,44.149,44.149,0,0,0-.891,7.9c-.093,4.245.433,8.49.764,12.735a141.828,141.828,0,0,1-.3,25.4,9.526,9.526,0,0,0,1.392,6.546,8.422,8.422,0,0,1,1.231,2.021c.637,1.944-.849,3.888-1.231,5.884a5.943,5.943,0,0,0,4.941,6.792c6.792.806,13.771.441,19.892,3.549.645-1.885-.764-4.024-.119-5.943.408-1.189,1.528-1.961,2.292-2.963a8.626,8.626,0,0,0,1.46-5.179,18.924,18.924,0,0,0-1.256-7.021c-.722-1.868-1.757-3.71-1.7-5.714,0-.985.348-2.021-.051-2.929a4.576,4.576,0,0,0-1.1-1.367,17.261,17.261,0,0,1-4.44-10.061,46.34,46.34,0,0,1,.357-11.156c.416-3.515.976-7.225,3.209-9.967a63.957,63.957,0,0,1,1.791-24.834c.221-.747.569-1.613,1.333-1.791a1.9,1.9,0,0,1,1.63.645,11.13,11.13,0,0,1,2.547,4.789c.637,1.876,1.282,3.88.8,5.8-.2.849-.611,1.6-.849,2.411a7.149,7.149,0,0,0,.255,4.984,4.788,4.788,0,0,1,.611,1.876,5.2,5.2,0,0,1-.509,1.63,7.506,7.506,0,0,0,.7,6.07,21.98,21.98,0,0,0,3.965,4.865,17.829,17.829,0,0,0,.552,9.814,1.24,1.24,0,0,1,.11.943c-.153.323-.543.441-.849.671-.849.7-.323,2.012.246,2.921a66.962,66.962,0,0,0,5.153,7.149c1.7,2.029,1.545,5.943,4.075,6.673a7.639,7.639,0,0,0,3.226,0c2.5-.382,5.281-1.1,6.5-3.311.5-.908.7-2.012,1.486-2.691s1.791-.8,2.224-1.613-.051-1.885.093-2.827.968-1.7,1.231-2.691c.628-2.292-2.046-4.177-2.411-6.52-.526-3.4,3.753-5.943,3.574-9.339-.374-7.378-.611-14.79-.993-22.168a159.833,159.833,0,0,1-.2-19.858c.3-4.118.849-8.431-.662-12.26-2.173-5.4-8.168-8.431-13.966-9.008s-11.581.8-17.328,1.7a109.521,109.521,0,0,1-28.824.6Z" transform="translate(-54.189 -164.285)" fill="#3f3d56"/>
  <circle id="Elipse_16" data-name="Elipse 16" cx="13.601" cy="13.601" r="13.601" transform="translate(248.557 324.391)" fill="#fbbebe"/>
  <path id="Trazado_125" data-name="Trazado 125" d="M312.324,503.348a5.8,5.8,0,0,1-5.544,3.506c-.492,2.038.688,4.092,2.038,5.7a24.18,24.18,0,0,0,23.144,7.938,11.42,11.42,0,0,0,4.559-1.9A10.112,10.112,0,0,0,340,512.56a29.97,29.97,0,0,0,.331-7.089,1.834,1.834,0,0,0-.374-1.307,1.868,1.868,0,0,0-1.189-.391c-2.87-.255-5.867-.365-8.388-1.774s-4.313-4.593-3.1-7.208c-.2.408-5.154.6-5.807.688-2.046.289-4.092.611-6.13.985a11.145,11.145,0,0,0-2.878.543c-1.231.637-.773.323-.484,1.477C312.417,500.249,313.054,501.514,312.324,503.348Z" transform="translate(-55.702 -149.216)" fill="#fbbebe"/>
  <path id="Trazado_126" data-name="Trazado 126" d="M313.874,512.849a22.524,22.524,0,0,1-5.442-.6,7.641,7.641,0,0,1-4.466-2.98c-.628-.951-1.036-2.148-2.038-2.683-1.639-.849-3.506.586-4.814,1.9a17.488,17.488,0,0,1-4.092,3.294c-1.817.959-3.939,1.3-5.654,2.428a14.213,14.213,0,0,0-3.4,3.668l-12.031,16.386c-4.831,6.588-9.034,13.661-13.338,20.614-3.727,6.02-5.68,12.948-8.49,19.442a2.173,2.173,0,0,0-.263,1.307c.1.442.637.8,1.01.543-1.265,1.257-.153,3.4-.45,5.162a6.334,6.334,0,0,1-2.021,3.167,15.961,15.961,0,0,1,5.6.263,17.175,17.175,0,0,1,5.3,2.547c1.027-.161.934-1.987,1.7-2.666.458-.4,1.138-.348,1.74-.467,2.267-.442,3.167-3.167,4.907-4.7,1.452-1.282,3.506-1.7,5.043-2.9,2.5-1.961,3.031-5.451,4.338-8.346,1.112-2.454,2.861-4.593,3.838-7.106a30.618,30.618,0,0,1,1.851-4.9c1.452-2.428,4.186-3.719,6.792-4.882a11.247,11.247,0,0,1,5.17-1.384c-.093,3.948-.594,7.836.263,11.691.3,1.358.713,2.683,1.07,4.033a75.939,75.939,0,0,1,2.08,18.678,56.833,56.833,0,0,1,11.886-1.426c3.15-.093,6.291.314,9.441.255,3.736-.068,7.429-.79,11.164-1.044s7.641,0,10.944,1.7a103.964,103.964,0,0,1,.45-16.131l.9-8.439A51.849,51.849,0,0,1,344,551.98c.492-1.936,1.206-3.8,1.749-5.731,1.91-6.792,1.562-14.043,1.2-21.115a26.615,26.615,0,0,0-3.235-10.443,28.262,28.262,0,0,0-2.038-3.464,20.062,20.062,0,0,0-17.541-8.235,3.549,3.549,0,0,0-1.257.272,4.186,4.186,0,0,0-1.6,1.91,20.8,20.8,0,0,1-7.395,7.675Z" transform="translate(-46.903 -150.448)" fill="#3f3d56"/>
  <path id="Trazado_127" data-name="Trazado 127" d="M305.02,487.449c.382-.849,1.409-1.163,2.038-1.842,1.206-1.29.662-3.354.849-5.094a7.318,7.318,0,0,1,4.839-5.586,15.639,15.639,0,0,1,7.641-.484,7.4,7.4,0,0,1,3.447,1.146c.441.323.849.739,1.265,1.036a3.4,3.4,0,0,0,4.619-1.078c-3.006-3.617-6.334-7.437-10.9-8.55a22.357,22.357,0,0,0-4.763-.45,15.466,15.466,0,0,0-6.249.73,10.416,10.416,0,0,0-5.485,6.334,30.791,30.791,0,0,0-1.333,8.49,31.99,31.99,0,0,0,0,5.773,15.962,15.962,0,0,0,2.836,7.276,2.2,2.2,0,0,0,.849.79C308.543,497.638,304.705,488.154,305.02,487.449Z" transform="translate(-54.824 -144.949)" fill="#3f3d56"/>
  <path id="Trazado_128" data-name="Trazado 128" d="M328.773,471.9c-.467-4-3.32-7.3-6.351-9.959a23.417,23.417,0,0,0-8.533-5.137,11.4,11.4,0,0,0-9.628,1.172,14.792,14.792,0,0,0-4.687,6.444,20.283,20.283,0,0,0-2.046,9.339,10.069,10.069,0,0,0,4.559,8.083A8.574,8.574,0,0,1,306.5,479,216.126,216.126,0,0,1,328.773,471.9Z" transform="translate(-54.321 -143.398)" fill="#fed253"/>
  <path id="Trazado_129" data-name="Trazado 129" d="M303.836,472.72c.272,0,.45.28.586.509a21.519,21.519,0,0,1,1.774,3.4c-.993.212-2.7.45-3.192-.424C302.741,475.759,303.055,472.677,303.836,472.72Z" transform="translate(-55.135 -145.884)" opacity="0.1"/>
  <path id="Trazado_130" data-name="Trazado 130" d="M326.711,469.714c-.2.2-.441-.2-.441-.492v-3.294a.484.484,0,0,1,.059-.263.4.4,0,0,1,.28-.136c.688-.076,1.257.509,1.7,1.07a17.926,17.926,0,0,1,1.74,2.9l-3.591-.11" transform="translate(-58.661 -144.797)" opacity="0.1"/>
  <path id="Trazado_131" data-name="Trazado 131" d="M374.743,530.829a22.208,22.208,0,0,1,2.5-2.046c2.352-1.571,5.2-2.19,7.836-3.192s5.323-2.623,6.351-5.255a12.481,12.481,0,0,0,.492-5.094,5.093,5.093,0,0,0-.374-2.1,4.168,4.168,0,0,0-1.341-1.46c-3.583-2.649-8.388-2.861-12.837-2.589A80.46,80.46,0,0,0,349,516.175a2.461,2.461,0,0,0-1.189.849,2.428,2.428,0,0,0-.229,1.18,19.528,19.528,0,0,0,.959,7.395c1.172,3.023,3.583,5.459,4.593,8.541.458,1.384.611,2.853,1.01,4.245a5.943,5.943,0,0,0,2.386,3.549c3.354,2,6.52-.688,8.847-2.776Z" transform="translate(-61.874 -151.363)" fill="#3f3d56"/>
  <path id="Trazado_132" data-name="Trazado 132" d="M322.439,541.352l-4.3-9.39a32.847,32.847,0,0,1-1.63-4.016c-.492-1.639-.73-3.337-1.189-4.984-1.511-5.485-5.323-10.052-7.183-15.427a2.928,2.928,0,0,0-.7-1.3,2.267,2.267,0,0,0-1.893-.34c-2.6.45-4.627,2.428-7,3.549-1.1.509-2.292.849-3.4,1.435a4.245,4.245,0,0,0-2.275,2.708c-.263,1.3.382,2.547.925,3.812,2.309,5.213,2.836,11.037,2.938,16.742.076,3.838-.119,7.955-2.386,11.037-4.355,5.943-1.571,14.671.059,21.862.2.849.425,1.766.56,2.666a24.507,24.507,0,0,1,.2,3.4c0,3.812-.212,7.743-1.808,11.2a12.532,12.532,0,0,0,5.094,1.443q7.395.942,14.849,1.324a16.183,16.183,0,0,0,4.661-.238,8.49,8.49,0,0,0,6.274-8.32c.272,2.352.773,4.907,2.479,6.537s4.194,1.876,6.512,2a121.063,121.063,0,0,0,19.612-.552,3.394,3.394,0,0,0,1.206-.28c1.257-.628,1.324-2.36,1.223-3.753-.187-2.606-.382-5.213-.7-7.8a31.929,31.929,0,0,1-.408-4.992,28.722,28.722,0,0,1,.849-5.094,57.77,57.77,0,0,0,1.656-16.131,27.225,27.225,0,0,1-.161-3.982c.221-3,1.8-5.85,1.5-8.83-.849-8.762-1.537-17.753-3.982-26.209-.441-1.511-1-3.133-2.318-4-1.7-1.138-4.084-.543-6.028-1.265a15.077,15.077,0,0,1-2.589-1.537,11.887,11.887,0,0,0-5.85-1.8,4.966,4.966,0,0,0-4.245,1.545,6.164,6.164,0,0,0-.849,2.318c-1.231,5.179-2.674,10.3-4.118,15.418l-1.384,4.907-3.71,13.177C322.567,539.595,322.813,540.028,322.439,541.352Z" transform="translate(-53.489 -150.127)" fill="#6c63ff"/>
  <path id="Trazado_133" data-name="Trazado 133" d="M339.448,400.25l82.125,86.3v7.318H384.955L323.24,413.325" transform="translate(-48.789 -60.433)" fill="#f1c0c0"/>
  <path id="Trazado_134" data-name="Trazado 134" d="M339.448,400.25l82.125,86.3v7.318H384.955L323.24,413.325" transform="translate(-48.789 -60.433)" opacity="0.1"/>
  <path id="Trazado_135" data-name="Trazado 135" d="M324.547,414.31l.263.093,60.67,74.272h36.091v7.318H384.955L323.24,415.448Z" transform="translate(-48.789 -62.556)" opacity="0.1"/>
  <path id="Trazado_136" data-name="Trazado 136" d="M345.7,503.579c-2.972,1.3-6.274,2.963-7.166,6.087a3.048,3.048,0,0,0,3.005,4.084,10.187,10.187,0,0,0,4.084-.747l17.532-5.79c.475-.153,1.019-.382,1.138-.849a1.46,1.46,0,0,0-.17-.849c-.543-1.324-1.078-4.033-2.216-4.958-.934-.747-2.785-.484-3.914-.467C353.643,500.124,349.559,501.881,345.7,503.579Z" transform="translate(-60.487 -150.008)" fill="#6c63ff"/>
  <path id="Trazado_137" data-name="Trazado 137" d="M364.744,507.586a28.2,28.2,0,0,1,8.7,1.35,15.5,15.5,0,0,1,7.208,4.924,5.4,5.4,0,0,1,1.138,2.224c.17.849,2.938,1.358,2.326,1.936,1.859-.3,1.418.577,3.3.56s3.922-.5,5.052-2a6.563,6.563,0,0,0,.993-4.152,7.072,7.072,0,0,0-.56-2.938c-.849-1.783-2.8-2.742-4.6-3.566l-15.163-6.936a10.069,10.069,0,0,0-2.8-.993,10.477,10.477,0,0,0-2.471.059l-6.868.79a10.3,10.3,0,0,1,4.7,9.059" transform="translate(-63.905 -149.693)" fill="#3f3d56"/>
</svg>
