<svg id="construction-illustration" xmlns="http://www.w3.org/2000/svg" width="400" height="246.033" viewBox="0 0 400 246.033">
  <path id="Trazado_74" data-name="Trazado 74" d="M411.07,245.781a81.969,81.969,0,0,1-2.4,19.779q-.808,3.27-1.878,6.4a75.646,75.646,0,0,1-3.029,7.58q-.866,1.875-1.831,3.675a49.432,49.432,0,0,1-4.133,19.863,51.209,51.209,0,0,1-24.852,25.606,52.275,52.275,0,0,1-22.186,5.094H87.009a66.453,66.453,0,0,1-33.424-8.935l-.156-.088q-2.17-1.27-4.231-2.69a66.363,66.363,0,0,1-8.684-7.159,64.619,64.619,0,0,1-9.546-11.828,63.119,63.119,0,0,1-9.709-33.7A79.47,79.47,0,0,1,11.07,230.03c0-18.339,5.963-35.068,15.761-47.731a67.1,67.1,0,0,1,6.694-7.448,62.29,62.29,0,0,1,7.655-6.266,59.562,59.562,0,0,1,6.792-4.075c.981-.5,1.966-.971,2.968-1.409.88-.391,1.769-.754,2.669-1.1q1.62-.615,3.281-1.131t3.277-.9q2.377-.581,4.836-.944c1.358-.2,2.717-.34,4.075-.445,1.08-.081,2.17-.126,3.267-.139h.594c1.209,0,2.411.048,3.6.129.126-.251.262-.506.387-.754.475-.907.968-1.81,1.464-2.693a.085.085,0,0,1,0-.024c.085-.156.17-.309.258-.458.4-.723.818-1.44,1.246-2.15.2-.34.391-.659.591-.978a2.6,2.6,0,0,1,.139-.231q.306-.509.621-1.019,1.572-2.513,3.27-4.938l.289-.414c.177-.251.34-.5.537-.747.469-.655.951-1.314,1.437-1.96.34-.462.679-.92,1.046-1.358q1.324-1.7,2.717-3.4t2.893-3.352c.136-.153.272-.3.414-.452l1.45-1.583h0c.071-.075.132-.143.2-.211h0c.173-.187.34-.374.526-.554.778-.825,1.576-1.633,2.377-2.438a129.456,129.456,0,0,1,13.007-11.333c.18-.143.363-.278.543-.414.863-.649,1.739-1.29,2.615-1.922a137.643,137.643,0,0,1,15.082-9.407c.36-.207.727-.4,1.1-.591a143.991,143.991,0,0,1,14.43-6.643c2.686-1.063,5.434-2.061,8.2-2.975,1.841-.6,3.688-1.178,5.559-1.718q4.388-1.263,8.837-2.265a157.355,157.355,0,0,1,26.571-3.62q4.075-.207,8.242-.214a157.917,157.917,0,0,1,39.734,5.026,1.433,1.433,0,0,0,1.233.642h1.141c.5.136.988.272,1.484.414q4.153,1.2,8.188,2.612l.679.245a146.182,146.182,0,0,1,19.327,8.49,139.467,139.467,0,0,1,16.182,10q1.192.856,2.35,1.725,1.406-.9,2.859-1.725a56.245,56.245,0,0,1,11.845-5.05A54.031,54.031,0,0,1,334.18,109.1a58.794,58.794,0,0,1,29.77,16.79,69.467,69.467,0,0,1,8.928,11.336c.187.292.374.588.554.886a74.716,74.716,0,0,1,5.685,11.333c.058.146.115.282.166.424a78.479,78.479,0,0,1,3.5,11.326c.041.2.088.391.129.588a81.554,81.554,0,0,1,1.671,11.333,2.2,2.2,0,0,0,.027.418q.214,2.958.217,5.977c0,1.8-.061,3.586-.173,5.359,0,.194-.027.394-.044.594-.031.513-.075,1.019-.119,1.535a64.454,64.454,0,0,1,7.261,6.85q1.484,1.62,2.873,3.362a71.526,71.526,0,0,1,7.4,11.333A79.53,79.53,0,0,1,411.07,245.781Z" transform="translate(-11.07 -87.76)" fill="#364f6b" opacity="0.1"/>
  <path id="Trazado_75" data-name="Trazado 75" d="M455.066,768.986c0,2.319-7.991,4.493-21.935,6.361H169.38a66.454,66.454,0,0,1-33.424-8.935l-.156-.088c4.007-1.46,11.241-2.822,21.086-4.051h0l.441-.054c4.415-.54,9.349-1.053,14.742-1.538a3.362,3.362,0,0,0,.411-.037h0q6.419-.571,13.656-1.07c.153,0,.3-.027.455-.034q2.792-.2,5.7-.38h0l.747-.047c14.111-.876,30.15-1.576,47.545-2.038h.02q3.654-.1,7.386-.18,4.15-.1,8.4-.173c2.163-.047,4.354-.081,6.551-.115h.051c9.913-.149,20.156-.224,30.629-.224,25.9,0,50.377.472,72.068,1.321h.061c3.335.129,6.609.272,9.8.418l2.717.129q5.4.258,10.528.554h0C428.971,761.087,455.066,764.8,455.066,768.986Z" transform="translate(-93.441 -529.313)" fill="#6c63ff" opacity="0.1"/>
  <g id="Grupo_2" data-name="Grupo 2" transform="translate(211.02 134.14)" opacity="0.2">
    <path id="Trazado_76" data-name="Trazado 76" d="M677.257,742.33a6.449,6.449,0,0,1-.126,1.09q-3.545-.564-7.132-1.019v-.292a5.732,5.732,0,0,1,.849-2.88,3.159,3.159,0,0,1,5.75.177A5.728,5.728,0,0,1,677.257,742.33Z" transform="translate(-657.245 -650.962)" fill="#3f3d56"/>
    <ellipse id="Elipse_3" data-name="Elipse 3" cx="4.758" cy="3.634" rx="4.758" ry="3.634" transform="translate(12.794 90.092) rotate(-88.19)" fill="#3f3d56"/>
    <ellipse id="Elipse_4" data-name="Elipse 4" cx="4.758" cy="3.634" rx="4.758" ry="3.634" transform="translate(12.98 84.278) rotate(-88.19)" fill="#3f3d56"/>
    <ellipse id="Elipse_5" data-name="Elipse 5" cx="4.758" cy="3.634" rx="4.758" ry="3.634" transform="translate(13.162 78.464) rotate(-88.19)" fill="#3f3d56"/>
    <ellipse id="Elipse_6" data-name="Elipse 6" cx="4.758" cy="3.634" rx="4.758" ry="3.634" transform="translate(13.344 72.65) rotate(-88.19)" fill="#3f3d56"/>
    <path id="Trazado_77" data-name="Trazado 77" d="M637.2,510.528a16.86,16.86,0,0,1-1.291-2.038l9.6-1.267-10.331-.248a17.449,17.449,0,0,1,.105-13.8l13.625,7.624L636.431,491a17.415,17.415,0,1,1,28.133,20.376,17.25,17.25,0,0,1,1.885,3.236l-12.6,6.045,13.357-4.018a17.435,17.435,0,0,1-3.335,16.27,17.415,17.415,0,1,1-27.359-.863,17.415,17.415,0,0,1,.679-21.524Z" transform="translate(-632.44 -482.747)" fill="#3fc1c9"/>
    <path id="Trazado_78" data-name="Trazado 78" d="M667.949,598.581a17.32,17.32,0,0,1-4.075,10.643,17.415,17.415,0,1,1-27.359-.863C634.284,605.328,668.01,596.628,667.949,598.581Z" transform="translate(-632.44 -559.056)" opacity="0.1"/>
  </g>
  <g id="Grupo_3" data-name="Grupo 3" transform="translate(159.4 134.14)" opacity="0.2">
    <path id="Trazado_79" data-name="Trazado 79" d="M525.257,742.33a6.455,6.455,0,0,1-.126,1.09q-3.545-.564-7.132-1.019v-.292a5.732,5.732,0,0,1,.849-2.88,3.159,3.159,0,0,1,5.75.177A5.729,5.729,0,0,1,525.257,742.33Z" transform="translate(-505.245 -650.962)" fill="#3f3d56"/>
    <ellipse id="Elipse_7" data-name="Elipse 7" cx="4.758" cy="3.634" rx="4.758" ry="3.634" transform="translate(12.791 90.094) rotate(-88.19)" fill="#3f3d56"/>
    <ellipse id="Elipse_8" data-name="Elipse 8" cx="4.758" cy="3.634" rx="4.758" ry="3.634" transform="translate(12.976 84.279) rotate(-88.19)" fill="#3f3d56"/>
    <ellipse id="Elipse_9" data-name="Elipse 9" cx="4.758" cy="3.634" rx="4.758" ry="3.634" transform="translate(13.158 78.465) rotate(-88.19)" fill="#3f3d56"/>
    <ellipse id="Elipse_10" data-name="Elipse 10" cx="4.758" cy="3.634" rx="4.758" ry="3.634" transform="translate(13.34 72.651) rotate(-88.19)" fill="#3f3d56"/>
    <path id="Trazado_80" data-name="Trazado 80" d="M485.2,510.528a16.869,16.869,0,0,1-1.29-2.038l9.6-1.267-10.331-.248a17.449,17.449,0,0,1,.105-13.8l13.625,7.624L484.431,491a17.415,17.415,0,1,1,28.133,20.376,17.25,17.25,0,0,1,1.885,3.236l-12.6,6.045,13.357-4.018a17.435,17.435,0,0,1-3.335,16.27,17.415,17.415,0,1,1-27.359-.863,17.415,17.415,0,0,1,.679-21.524Z" transform="translate(-480.44 -482.747)" fill="#3fc1c9"/>
    <path id="Trazado_81" data-name="Trazado 81" d="M515.949,598.581a17.32,17.32,0,0,1-4.075,10.643,17.415,17.415,0,1,1-27.359-.863C482.284,605.328,516.01,596.628,515.949,598.581Z" transform="translate(-480.44 -559.056)" opacity="0.1"/>
  </g>
  <g id="Grupo_4" data-name="Grupo 4" transform="translate(281.911 53.388)" opacity="0.2">
    <path id="Trazado_82" data-name="Trazado 82" d="M927.348,744.472a12.664,12.664,0,0,1-.248,2.065q-6.826-1.09-13.751-1.949v-.56a11.038,11.038,0,0,1,1.637-5.546,6.09,6.09,0,0,1,11.081.34,11.047,11.047,0,0,1,1.28,5.651Z" transform="translate(-888.843 -568.636)" fill="#3f3d56"/>
    <ellipse id="Elipse_11" data-name="Elipse 11" cx="9.163" cy="6.999" rx="9.163" ry="6.999" transform="translate(24.596 173.372) rotate(-88.19)" fill="#3f3d56"/>
    <ellipse id="Elipse_12" data-name="Elipse 12" cx="9.163" cy="6.999" rx="9.163" ry="6.999" transform="translate(24.949 162.178) rotate(-88.19)" fill="#3f3d56"/>
    <ellipse id="Elipse_13" data-name="Elipse 13" cx="9.163" cy="6.999" rx="9.163" ry="6.999" transform="translate(25.305 150.985) rotate(-88.19)" fill="#3f3d56"/>
    <ellipse id="Elipse_14" data-name="Elipse 14" cx="9.163" cy="6.999" rx="9.163" ry="6.999" transform="translate(25.266 139.307) rotate(-88.282)" fill="#3f3d56"/>
    <path id="Trazado_83" data-name="Trazado 83" d="M850.333,298.387a33.714,33.714,0,0,1-2.482-3.916l18.474-2.438-19.884-.479a33.587,33.587,0,0,1,.2-26.571l26.234,14.674L848.849,260.8a33.526,33.526,0,1,1,54.157,39.245,33.522,33.522,0,0,1,3.63,6.232l-24.251,11.645,25.711-7.743a33.536,33.536,0,0,1-6.395,31.295,33.526,33.526,0,1,1-52.673-1.661,33.536,33.536,0,0,1,1.3-41.432Z" transform="translate(-841.186 -244.965)" fill="#3fc1c9"/>
    <path id="Trazado_84" data-name="Trazado 84" d="M909.552,467.772a33.4,33.4,0,0,1-7.811,20.492,33.526,33.526,0,1,1-52.673-1.661C844.742,480.758,909.671,464.013,909.552,467.772Z" transform="translate(-841.212 -391.746)" opacity="0.1"/>
  </g>
  <path id="Trazado_85" data-name="Trazado 85" d="M157.82,251.858l3.562-.01h5.023l6.351-103.165L235.647,43.735,232.913,40.8V33.37L164.9,146.251Z" transform="translate(-104.217 -22.037)" fill="#f1c0c0"/>
  <path id="Trazado_86" data-name="Trazado 86" d="M169.43,266.3h4.642l6.351-103.165L243.314,58.184l-2.734-2.934L175.709,161.56Z" transform="translate(-111.884 -36.487)" opacity="0.1"/>
  <path id="Trazado_87" data-name="Trazado 87" d="M126.91,665.233,289.869,677.7l.139.01,157.709-9.7.119-.007v-6.66l-173.776-3.189L129.08,658.02h-1.06l-.115.747Z" transform="translate(-83.804 -434.553)" fill="#f1c0c0"/>
  <path id="Trazado_88" data-name="Trazado 88" d="M126.91,665.233,289.869,677.7l.139.01,157.709-9.7.119-.129v-6.4H447.7l-157.828,5.271L129.08,658.02h-.024l-.285.187-.866.56Z" transform="translate(-83.804 -434.553)" opacity="0.1"/>
  <path id="Trazado_89" data-name="Trazado 89" d="M126.91,665.6l162.959,12.47V667.121l-161.1-8.551-.866.56Z" transform="translate(-83.804 -434.916)" opacity="0.1"/>
  <path id="Trazado_90" data-name="Trazado 90" d="M378.88,40.813l71.843,77.111L448.5,253.562l6.1.737.1.014h6.1l.73-130.564,134.528,44.936,2.268,80.011,4.911.55,1.664.187-3.851-86.3-140.63-49.372L383.319,33.6H378.88Z" transform="translate(-250.204 -22.189)" fill="#f1c0c0"/>
  <path id="Trazado_91" data-name="Trazado 91" d="M620.65,291.7l.554,2.5,134.528,44.936L758,419.143l4.911.55-3.851-82.225Z" transform="translate(-409.868 -192.637)" opacity="0.1"/>
  <path id="Trazado_92" data-name="Trazado 92" d="M378.88,40.813l71.843,77.111L448.5,253.562l6.1.737,1.664-140.814L378.88,33.6Z" transform="translate(-250.204 -22.189)" opacity="0.1"/>
  <path id="Trazado_93" data-name="Trazado 93" d="M621.42,434.859l49.341,9.716.017,0L757.2,461.6l3.956-1.586-.014-.279-.258-5.519L621.471,426.05Z" transform="translate(-410.376 -281.361)" fill="#f1c0c0"/>
  <path id="Trazado_94" data-name="Trazado 94" d="M766.76,480.61l86.419,17.024,3.956-1.586-.014-.278Z" transform="translate(-506.358 -317.392)" opacity="0.1"/>
  <path id="Trazado_95" data-name="Trazado 95" d="M776.49,350.56l1.335,73.47.689,37.693,6.076-.2,3.824-.129-1.189-109.767-2.635-.876-.577-.187Z" transform="translate(-512.784 -231.508)" fill="#f1c0c0"/>
  <path id="Trazado_96" data-name="Trazado 96" d="M776.65,350.51v.017L777.93,424l.689,37.693,6.076-.2V350.51Z" transform="translate(-512.889 -231.475)" opacity="0.1"/>
  <path id="Trazado_97" data-name="Trazado 97" d="M487.875,484.475a7.741,7.741,0,0,1,1.019.662,6.742,6.742,0,0,1,1.019,1.117c1.457,1.885,2.8,4.075,2.659,6.453a2.625,2.625,0,0,1-.757,1.868,3.394,3.394,0,0,1-2.252.537,4.794,4.794,0,0,1-2.5-.441c-.74-.441-1.358-1.3-2.235-1.28a1.143,1.143,0,0,1-.374,0c-.3-.1-.363-.5-.56-.747-.34-.452-1.056-.34-1.589-.143a2.3,2.3,0,0,1-1.65.265,1.715,1.715,0,0,1-.717-.717c-1.26-2.038-1.528-4.486-1.766-6.853-.146-1.44-1.26-6.351,1.813-5.233a25.482,25.482,0,0,1,3.865,2.184Z" transform="translate(-319.336 -346.66)" fill="#3f3d56"/>
  <path id="Trazado_98" data-name="Trazado 98" d="M497.195,491.4a1.515,1.515,0,0,0,1.864-.075,2.809,2.809,0,0,0,.907-1.759c.34-.105.513.34.73.611.38.462,1.155.455,1.5.948.241.34.187.812.357,1.2.221.5.768.754,1.141,1.155a3.932,3.932,0,0,1,.747,1.491L505,496.64a8.257,8.257,0,0,1,.509,2.163,2.8,2.8,0,0,1-.645,2.068,5.483,5.483,0,0,1-4.13.74,3.046,3.046,0,0,1-1.83-2.241,28.3,28.3,0,0,1-.377-3,11.74,11.74,0,0,0-.849-2.846c-.3-.706-1.121-1.759-1.107-2.51C496.814,491.019,496.991,491.244,497.195,491.4Z" transform="translate(-331.692 -353.102)" fill="#3f3d56"/>
  <path id="Trazado_99" data-name="Trazado 99" d="M492.992,476.357a5.608,5.608,0,0,1-.275-1.491,6.491,6.491,0,0,1,.934-2.887l-3.882.526a1.719,1.719,0,0,0-1.257.55,1.359,1.359,0,0,0,0,1.253,6.4,6.4,0,0,1,.462,1.212,6.054,6.054,0,0,0,.126,1.09,2.309,2.309,0,0,0,.5.7,23.547,23.547,0,0,1,2.771,4.116c-.024-.041,2.34-1.871,2.245-2.469-.054-.34-.737-.747-.954-1.073A5.466,5.466,0,0,1,492.992,476.357Z" transform="translate(-326.269 -341.497)" fill="#be6f72"/>
  <path id="Trazado_100" data-name="Trazado 100" d="M451.805,358.04v3.345l-57.281,11.173-2.971,1.8H381.3v-1.885l56.279-13.6Z" transform="translate(-251.802 -236.448)" fill="#f1c0c0"/>
  <path id="Trazado_101" data-name="Trazado 101" d="M451.805,367.89l-57.281,11.173-2.971,1.8H381.3L438,368.729Z" transform="translate(-251.802 -242.953)" opacity="0.1"/>
  <path id="Trazado_102" data-name="Trazado 102" d="M446.029,722.284a4.439,4.439,0,0,0-5.4-1.148,1.422,1.422,0,0,0-.5.387c-.34.475-.122,1.131-.092,1.718.078,1.433-1.063,2.6-2.089,3.6a4.938,4.938,0,0,0-1.358,1.841,1.725,1.725,0,0,0,.6,2.038,2.5,2.5,0,0,0,.93.258,10.041,10.041,0,0,0,3.294.092,3.569,3.569,0,0,0,2.615-1.82,1.92,1.92,0,0,1,.438-.723c.6-.472,1.515.082,2.194-.255.56-.278.584-.717.591-1.294A7.493,7.493,0,0,0,446.029,722.284Z" transform="translate(-292.015 -505.731)" fill="#6c63ff"/>
  <path id="Trazado_103" data-name="Trazado 103" d="M474.283,717.351a11.18,11.18,0,0,1,.53,3.474,3.352,3.352,0,0,1-.316,1.98,2.705,2.705,0,0,1-1.769,1.019,4.057,4.057,0,0,1-3.97-1.107,4.189,4.189,0,0,1-.717-3.152c.109-.913.34-1.983-.316-2.632-.17-.173-.391-.3-.547-.482a1.618,1.618,0,0,1-.1-1.549,6.729,6.729,0,0,0,.533-1.532c.027-.251,4.6.177,5.019.384.574.282.486.754.659,1.324C473.529,715.873,473.991,716.59,474.283,717.351Z" transform="translate(-312.119 -500.859)" fill="#6c63ff"/>
  <path id="Trazado_104" data-name="Trazado 104" d="M448.187,579.539a3.773,3.773,0,0,1,1.382,2.781c.384,2.9-.289,5.838-.34,8.769-.048,4.106,1.141,8.286.126,12.263-.608,2.377-.092,5.094-.662,7.495-.17.713-.482,1.386-.645,2.1a9.157,9.157,0,0,0,.5,4.673,4.827,4.827,0,0,1,.289,1.267,4.558,4.558,0,0,1-.5,1.915L446.3,625.62c-.228.54-1.124.628-1.7.7a4.247,4.247,0,0,1-3.145-.448,4.023,4.023,0,0,1-1.2-2.836,43.473,43.473,0,0,1-.34-6.055,4.989,4.989,0,0,0-.139-1.572,13.79,13.79,0,0,1-.71-1.7,6.82,6.82,0,0,1,.411-2.377,7.163,7.163,0,0,0-.034-2.2c-.132-1.087-.285-2.173-.458-3.253a14.418,14.418,0,0,1,.34-4.517,12.453,12.453,0,0,0-.34-4.286,11.814,11.814,0,0,1-.425,3.4c-.18.54-.438,1.056-.594,1.606-.7,2.469.788,5.06.577,7.617a18.868,18.868,0,0,0-.435,3.556,11.994,11.994,0,0,0,.768,2.476,3.209,3.209,0,0,1,0,2.53c-1.1,2.085-.279,4.921.71,7.06a9.536,9.536,0,0,1,.523,1.175,14.04,14.04,0,0,1,.126,3.005,1.9,1.9,0,0,1-1.593-.479c-.149-.156-.272-.34-.418-.5a4.146,4.146,0,0,0-1.42-.886,1.864,1.864,0,0,0-1.019-.234,2.038,2.038,0,0,0-.968.6,9.481,9.481,0,0,1-1.066.812,1.263,1.263,0,0,1-.543.241.479.479,0,0,1-.5-.255.6.6,0,0,1-.037-.177,26.9,26.9,0,0,1-.2-3.09c0-1.776-2.126-3-2.394-4.754-.214-1.416.183-2.859.051-4.286a20.855,20.855,0,0,1-.255-2.187c0-.475.109-.941.146-1.413a10.569,10.569,0,0,0-.024-1.572l-.105-1.64a14.173,14.173,0,0,0-.852-4.754,16.155,16.155,0,0,1-1.324-5.461c-.068-1.189-.024-2.377-.16-3.569a17.578,17.578,0,0,1-.316-3.226c.065-.835.34-1.644.4-2.479a12.668,12.668,0,0,0-.958-4.707,6.967,6.967,0,0,1-.2-4.727,1.553,1.553,0,0,1,.435-.632,1.9,1.9,0,0,1,.8-.3,62.186,62.186,0,0,1,17.734-1.131,5.89,5.89,0,0,1,2.734.852Z" transform="translate(-285.183 -411.835)" fill="#3f3d56"/>
  <circle id="Elipse_15" data-name="Elipse 15" cx="5.44" cy="5.44" r="5.44" transform="translate(138.284 120.753)" fill="#be6f72"/>
  <path id="Trazado_105" data-name="Trazado 105" d="M427.1,468.992a1.941,1.941,0,0,1,0,.947,2.145,2.145,0,0,1-.357.6A15.345,15.345,0,0,1,425,472.432a3.155,3.155,0,0,0,1.627,1.606,9.444,9.444,0,0,0,2.245.642,2.353,2.353,0,0,0,2.2-.38l3.022-1.81a6.036,6.036,0,0,0,1.257-.907,3.094,3.094,0,0,0,.876-2.126.584.584,0,0,0-.109-.4.713.713,0,0,0-.414-.173,3.683,3.683,0,0,1-2.377-2.075,10.99,10.99,0,0,1-.825-3.148l-3.223,1.7c-.479.255-.954.509-1.45.73-.316.143-.954.262-1.178.55C426.223,467.172,426.987,468.35,427.1,468.992Z" transform="translate(-284.427 -336.002)" fill="#be6f72"/>
  <path id="Trazado_106" data-name="Trazado 106" d="M422.862,479.84a3.583,3.583,0,0,0-1.043,1.409,3.672,3.672,0,0,0,.19,2.068,61.7,61.7,0,0,1,2.038,8.758c.285,2.038.391,4.106.53,6.167.285,4.2.7,10.908,1.253,15.085,2.038.092,4.024-.5,6.045-.72,3.776-.4,7.665.516,11.363-.34-.9-3.542-1.793-9.59-2.69-13.129a25.055,25.055,0,0,1-.822-4.262c-.078-1.036-.031-2.075-.017-3.118.031-2.038-.081-4.075-.194-6.113a38.782,38.782,0,0,0-.822-7.081,1.317,1.317,0,0,0-.394-.778,1.6,1.6,0,0,0-1.185-.105,5.155,5.155,0,0,1-3.525-.835c-.448-.306-1.049-.679-1.467-.34a1.46,1.46,0,0,0-.34.723,3.617,3.617,0,0,1-2.126,2.1,10.64,10.64,0,0,1-3.009.618,1.477,1.477,0,0,1-.934-.105c-.482-.3-.516-1.358-1.124-1.43C424.057,478.349,423.222,479.5,422.862,479.84Z" transform="translate(-282.269 -344.398)" fill="#3f3d56"/>
  <path id="Trazado_107" data-name="Trazado 107" d="M419.177,488.571c-1.253-1.2-1.8-2.938-2.717-4.415a9.828,9.828,0,0,0-2.347-2.581,7,7,0,0,1-1.277-1.083c-.323-.4-.567-.927-1.056-1.08a1.277,1.277,0,0,0-1.145.316,11.26,11.26,0,0,0-.849.9c-1.44,1.491-3.97,1.7-5.111,3.423a2.805,2.805,0,0,0-.608,1.274,9.869,9.869,0,0,0,1.813,7.1,2.411,2.411,0,0,0,1.257,1.019,3.933,3.933,0,0,0,.245,1.868,49.957,49.957,0,0,0,2.313,6.3,15.243,15.243,0,0,0-.455,2.442c-.238,2.075-.017,4.181-.241,6.259-.183,1.7-.679,3.352-.7,5.053,0,.272.024.594.258.734a.781.781,0,0,0,.4.085l4.177.126A33.909,33.909,0,0,0,420.4,516a3.022,3.022,0,0,0,.914-.289,3.068,3.068,0,0,0,1.206-2.377,20.72,20.72,0,0,0,.2-3.552c.506,1.6,1.107,3.253,2.635,3.946a5.913,5.913,0,0,0,2.618.316,49.3,49.3,0,0,0,5.7-.588.751.751,0,0,0,.832-.873l.02-1.854c.041-3.766-.893-7.366-1.257-11.115a24.16,24.16,0,0,0-.394-3.535c-.119-.486-.292-.961-.4-1.45a10.365,10.365,0,0,1-.17-1.45l-.265-3.736c-.126-1.729-.306-3.4-.438-5.121a24.791,24.791,0,0,0-.727-4.979c-.3-1.019-.91-2.173-1.973-2.3a4.067,4.067,0,0,0-1.657.357,6.7,6.7,0,0,1-4.075-.017,5.736,5.736,0,0,0-1.27-.34,1.246,1.246,0,0,0-1.161.482,1.742,1.742,0,0,0-.18.856A45.3,45.3,0,0,1,419.177,488.571Z" transform="translate(-270.549 -344.836)" fill="#6c63ff"/>
  <path id="Trazado_108" data-name="Trazado 108" d="M414.3,501.592a20.62,20.62,0,0,0-5.189-4.381,4.145,4.145,0,0,0-2.578-.571,1.93,1.93,0,0,0-1.657,1.813,11.74,11.74,0,0,0,.469,1.586,16.668,16.668,0,0,0,.136,1.854,3.138,3.138,0,0,0,.679,1.043l2.4,2.849A15.48,15.48,0,0,0,411.914,509a5.033,5.033,0,0,0,4.449.621,5.468,5.468,0,0,0,2.438-2.238c.6-.951,1.019-1.99,1.579-2.971a14.755,14.755,0,0,1,3.4-4.119,3.773,3.773,0,0,1-2.038-1.019,3.367,3.367,0,0,1-.323-.584l-.55-1.189a1.359,1.359,0,0,0-1.019.384,8.533,8.533,0,0,1-.757.771c-.479.36-1.128.458-1.562.869a4.141,4.141,0,0,0-.455.571A3.81,3.81,0,0,1,414.3,501.592Z" transform="translate(-271.137 -357.756)" fill="#3f3d56"/>
  <path id="Trazado_109" data-name="Trazado 109" d="M453.871,471.616c1.178-2.15,1.124-4.727,1.46-7.155a3.267,3.267,0,0,1,.649-1.776,3.384,3.384,0,0,1,2.9-.679c.3.034.679.177.662.479a.611.611,0,0,1-.153.289,8.079,8.079,0,0,0-1.678,4.456c.533.37,1.358-.391,1.871,0,.34.285.183.849-.02,1.257q-.71,1.416-1.464,2.812a9.03,9.03,0,0,1-1.552,2.238c-.431.414-.937.74-1.375,1.148-1.019.954-1.634,2.3-2.686,3.233a.55.55,0,0,1-.34.173.57.57,0,0,1-.357-.16,5.149,5.149,0,0,1-1.284-1.552c-.4-.74-.34-.958.292-1.481A11.225,11.225,0,0,0,453.871,471.616Z" transform="translate(-301.107 -334.881)" fill="#be6f72"/>
  <path id="Trazado_110" data-name="Trazado 110" d="M414.445,498.168c.2.126.455.268.679.163a.706.706,0,0,0,.228-.221,8,8,0,0,0,.964-1.678.645.645,0,0,0,.071-.272c0-.217-.194-.377-.374-.5a13.842,13.842,0,0,0-3.087-1.467,6.37,6.37,0,0,0-2.785-.55,2.656,2.656,0,0,0-1.858.944c-.679.873.458,1.138,1.172,1.454A45.3,45.3,0,0,1,414.445,498.168Z" transform="translate(-273.251 -355.792)" fill="#6c63ff"/>
  <path id="Trazado_111" data-name="Trazado 111" d="M423.669,518.008a.5.5,0,0,0,.143.428c.1-.482-.031-.992.071-1.477.149-.73.859-1.28.92-2.014C423.5,514.69,423.68,517.22,423.669,518.008Z" transform="translate(-283.545 -369.859)" opacity="0.1"/>
  <path id="Trazado_112" data-name="Trazado 112" d="M561.246,358.04v3.345l-13.808.839-.418-3.348Z" transform="translate(-361.243 -236.448)" opacity="0.2"/>
  <path id="Trazado_113" data-name="Trazado 113" d="M416.633,446.105c.863-.7.363-2.177.947-3.121a3.032,3.032,0,0,1,1.477-1.019,6.721,6.721,0,0,1,2.156-.6,2.5,2.5,0,0,1,2.038.751c.221.251.37.557.577.818a2.207,2.207,0,0,0,2.14.74c.452-.1.92-.445.89-.907a1.28,1.28,0,0,0-.408-.727l-.971-1.077c-1.1-1.223-2.33-2.52-3.95-2.826a6.775,6.775,0,0,0-3.369.452c-.438.146-.931.363-1.053.808-.082.306.041.638-.031.947-.139.615-.927.822-1.294,1.338s-.255,1.128-.36,1.7a14.854,14.854,0,0,0-.448,1.718c-.024.357.156,1.019.557,1.148S416.385,445.681,416.633,446.105Z" transform="translate(-277.806 -319.103)" fill="#3f3d56"/>
  <path id="Trazado_114" data-name="Trazado 114" d="M425.967,436.859a10.188,10.188,0,0,0-1.807-4.13,7.237,7.237,0,0,0-3.216-2.554,4.605,4.605,0,0,0-4,.316,5.814,5.814,0,0,0-2,2.523,6.747,6.747,0,0,0-.183,6.031c.408-.5,1.107-.272,1.725-.452a17.99,17.99,0,0,0,2.167-1.06C420.873,436.554,423.59,437.348,425.967,436.859Z" transform="translate(-277.244 -313.681)" fill="#fed253"/>
  <path id="Trazado_115" data-name="Trazado 115" d="M417.335,446.587a2.075,2.075,0,0,1,.306-1.756.221.221,0,0,1,.18-.082.234.234,0,0,1,.139.122,7.6,7.6,0,0,1,.638,1.25,1.3,1.3,0,0,0-1.358.526" transform="translate(-279.303 -323.514)" opacity="0.1"/>
  <path id="Trazado_116" data-name="Trazado 116" d="M440.58,441.8l-.122-1.212a.553.553,0,0,1,.024-.3.384.384,0,0,1,.5-.136,1.019,1.019,0,0,1,.4.4,7.133,7.133,0,0,1,.7,1.382,4.109,4.109,0,0,0-1.654.02" transform="translate(-294.611 -320.449)" opacity="0.1"/>
  <path id="Trazado_117" data-name="Trazado 117" d="M410.267,502.21v2.771l-2.34.156H395.62V502.21Z" transform="translate(-261.259 -331.657)" opacity="0.1"/>
  <path id="Trazado_118" data-name="Trazado 118" d="M334.6,408.639v2.927H319.952L281.04,362.822v-2.3H289.2Z" transform="translate(-185.591 -238.086)" fill="#f1c0c0"/>
  <path id="Trazado_119" data-name="Trazado 119" d="M334.6,408.639v2.927H319.952L281.04,362.822v-2.3H289.2Z" transform="translate(-185.591 -238.086)" opacity="0.1"/>
  <path id="Trazado_120" data-name="Trazado 120" d="M334.6,408.639v2.927H319.952L281.04,362.822v-2.3l39.122,48.119Z" transform="translate(-185.591 -238.086)" opacity="0.1"/>
  <path id="Trazado_121" data-name="Trazado 121" d="M299.26,729.361a1.019,1.019,0,0,1-.89,1.2,6.053,6.053,0,0,0-2.615,1.358,1.869,1.869,0,0,0,0,2.652,2.579,2.579,0,0,0,1.358.37,9.2,9.2,0,0,0,4.537-.567c1-.462,1.939-1.25,3.036-1.178.567.034,1.172.3,1.678.041s.649-.978.652-1.579a11.693,11.693,0,0,0-.56-3.7,14.852,14.852,0,0,0-2.469-.34l-2.618-.34c-.5-.064-1.566-.438-1.956-.024S299.26,728.869,299.26,729.361Z" transform="translate(-198.71 -509.953)" fill="#6c63ff"/>
  <path id="Trazado_122" data-name="Trazado 122" d="M352.983,699.063a8.2,8.2,0,0,0,.537,1.78,4.143,4.143,0,0,0,1.718,2.353,3.067,3.067,0,0,0,2.622-.126,2.16,2.16,0,0,0,.873-.662,2.629,2.629,0,0,0,.34-1.525,8.33,8.33,0,0,0-.679-3.841c-.516-1.019-1.416-1.9-1.43-3.023l-3.094.6a.883.883,0,0,0-.455.18.784.784,0,0,0-.2.37A10.11,10.11,0,0,0,352.983,699.063Z" transform="translate(-236.808 -488.131)" fill="#6c63ff"/>
  <path id="Trazado_123" data-name="Trazado 123" d="M244.257,602.963a5.055,5.055,0,0,0,.5,3.209,2.484,2.484,0,0,0,2.812,1.192.411.411,0,0,0,.255-.194.479.479,0,0,0-.044-.34,5.013,5.013,0,0,1,.105-3.776c.068-.156.214-.34.374-.279a.34.34,0,0,1,.153.156,1.776,1.776,0,0,1,.238.937,3.486,3.486,0,0,0-.027.9c.065.292.377.567.649.441a.679.679,0,0,0,.309-.438c.757-2.19.414-4.585.068-6.877a.36.36,0,0,0-.4-.377c-1.6-.16-2.479-.543-3.4.948A9.309,9.309,0,0,0,244.257,602.963Z" transform="translate(-165.028 -424.294)" fill="#6c63ff"/>
  <path id="Trazado_124" data-name="Trazado 124" d="M297.635,595.564a20.825,20.825,0,0,0-.7,9.787l.357,2.941c.122.992.241,1.98.414,2.961a7.861,7.861,0,0,1,.18,1.538,8.238,8.238,0,0,1-.241,1.511,17.66,17.66,0,0,0-.357,3.158c-.037,1.7.173,3.4.306,5.094a56.733,56.733,0,0,1-.119,10.161,3.81,3.81,0,0,0,.557,2.618,3.369,3.369,0,0,1,.492.808c.255.778-.34,1.555-.492,2.353a2.377,2.377,0,0,0,1.977,2.717c2.717.323,5.508.177,7.957,1.419.258-.754-.306-1.61-.048-2.377.163-.475.611-.784.917-1.185a3.45,3.45,0,0,0,.584-2.072,7.569,7.569,0,0,0-.5-2.808,6.074,6.074,0,0,1-.679-2.286,2.888,2.888,0,0,0-.02-1.172,1.831,1.831,0,0,0-.438-.547A6.9,6.9,0,0,1,306,626.162a18.535,18.535,0,0,1,.143-4.462,7.581,7.581,0,0,1,1.284-3.987,25.583,25.583,0,0,1,.717-9.933c.088-.3.228-.645.533-.717a.761.761,0,0,1,.652.258,4.452,4.452,0,0,1,1.019,1.915,4.177,4.177,0,0,1,.319,2.32c-.082.34-.245.638-.34.964a2.86,2.86,0,0,0,.1,1.994,1.915,1.915,0,0,1,.245.75,2.077,2.077,0,0,1-.2.652,3,3,0,0,0,.282,2.428,8.791,8.791,0,0,0,1.586,1.946,7.132,7.132,0,0,0,.221,3.926.5.5,0,0,1,.044.377c-.061.129-.217.177-.34.268-.34.278-.129.8.1,1.168a26.784,26.784,0,0,0,2.061,2.859c.679.812.618,2.377,1.63,2.669a3.056,3.056,0,0,0,1.29,0,3.384,3.384,0,0,0,2.6-1.324,3.564,3.564,0,0,1,.594-1.077c.312-.272.717-.319.89-.645s-.02-.754.037-1.131.387-.679.492-1.077c.251-.917-.818-1.671-.964-2.608-.211-1.358,1.5-2.377,1.43-3.736-.149-2.951-.245-5.916-.4-8.867a63.932,63.932,0,0,1-.082-7.943,11.17,11.17,0,0,0-.265-4.9c-.869-2.16-3.267-3.372-5.587-3.6a27.512,27.512,0,0,0-6.931.679A43.808,43.808,0,0,1,297.635,595.564Z" transform="translate(-199.666 -422.467)" fill="#3f3d56"/>
  <circle id="Elipse_16" data-name="Elipse 16" cx="5.44" cy="5.44" r="5.44" transform="translate(99.423 129.756)" fill="#fbbebe"/>
  <path id="Trazado_125" data-name="Trazado 125" d="M308.929,498.213a2.319,2.319,0,0,1-2.218,1.4,2.735,2.735,0,0,0,.815,2.279,9.672,9.672,0,0,0,9.258,3.175,4.568,4.568,0,0,0,1.824-.761A4.045,4.045,0,0,0,320,501.9a11.989,11.989,0,0,0,.132-2.836.734.734,0,0,0-.149-.523.747.747,0,0,0-.475-.156,8.246,8.246,0,0,1-3.355-.71,2.391,2.391,0,0,1-1.24-2.883,12.174,12.174,0,0,1-2.323.275c-.818.115-1.637.245-2.452.394a4.458,4.458,0,0,0-1.151.217c-.492.255-.309.129-.194.591A2.809,2.809,0,0,1,308.929,498.213Z" transform="translate(-206.28 -356.561)" fill="#fbbebe"/>
  <path id="Trazado_126" data-name="Trazado 126" d="M274.584,506.91a9.01,9.01,0,0,1-2.177-.241,3.056,3.056,0,0,1-1.786-1.192c-.251-.38-.414-.859-.815-1.073-.655-.34-1.4.234-1.926.761a6.994,6.994,0,0,1-1.637,1.318c-.727.384-1.576.52-2.262.971a5.684,5.684,0,0,0-1.358,1.467l-4.812,6.554c-1.932,2.635-3.613,5.464-5.335,8.246-1.491,2.408-2.272,5.179-3.4,7.777a.869.869,0,0,0-.105.523c.041.177.255.319.4.217-.506.5-.061,1.358-.18,2.065a2.533,2.533,0,0,1-.808,1.267,6.383,6.383,0,0,1,2.241.105,6.869,6.869,0,0,1,2.119,1.019c.411-.065.374-.795.679-1.066.183-.16.455-.139.7-.187.907-.177,1.267-1.267,1.963-1.881.581-.513,1.4-.679,2.017-1.161,1-.784,1.212-2.18,1.735-3.338.445-.981,1.144-1.837,1.535-2.842a12.246,12.246,0,0,1,.74-1.96,5.609,5.609,0,0,1,2.717-1.953,4.5,4.5,0,0,1,2.068-.554,19.208,19.208,0,0,0,.105,4.676c.119.543.285,1.073.428,1.613a30.376,30.376,0,0,1,.832,7.471,22.732,22.732,0,0,1,4.754-.571c1.26-.037,2.516.126,3.776.1,1.494-.027,2.972-.316,4.466-.418a8.342,8.342,0,0,1,4.378.679,41.579,41.579,0,0,1,.18-6.453l.36-3.376a20.746,20.746,0,0,1,.452-2.914c.2-.774.482-1.521.7-2.292a26.241,26.241,0,0,0,.479-8.446,10.646,10.646,0,0,0-1.294-4.177,11.309,11.309,0,0,0-.815-1.386,8.025,8.025,0,0,0-7.016-3.294,1.419,1.419,0,0,0-.5.109,1.674,1.674,0,0,0-.642.764,8.321,8.321,0,0,1-2.958,3.07Z" transform="translate(-167.795 -361.949)" fill="#3f3d56"/>
  <path id="Trazado_127" data-name="Trazado 127" d="M302.522,474.9c.153-.34.564-.465.815-.737.482-.516.265-1.341.34-2.038a2.927,2.927,0,0,1,1.936-2.235,6.256,6.256,0,0,1,3.056-.194,2.958,2.958,0,0,1,1.379.458c.177.129.34.3.506.414a1.358,1.358,0,0,0,1.847-.431c-1.2-1.447-2.533-2.975-4.361-3.42a8.943,8.943,0,0,0-1.905-.18,6.186,6.186,0,0,0-2.5.292,4.166,4.166,0,0,0-2.194,2.533,12.316,12.316,0,0,0-.533,3.4,12.8,12.8,0,0,0,0,2.309,6.385,6.385,0,0,0,1.134,2.91.879.879,0,0,0,.34.316C303.931,478.972,302.4,475.179,302.522,474.9Z" transform="translate(-202.444 -337.897)" fill="#3f3d56"/>
  <path id="Trazado_128" data-name="Trazado 128" d="M310.024,462.513a6.667,6.667,0,0,0-2.54-3.984,9.367,9.367,0,0,0-3.413-2.055,4.561,4.561,0,0,0-3.851.469,5.917,5.917,0,0,0-1.875,2.578,8.113,8.113,0,0,0-.818,3.736,4.027,4.027,0,0,0,1.824,3.233,3.43,3.43,0,0,1,1.766-1.138A86.449,86.449,0,0,1,310.024,462.513Z" transform="translate(-200.243 -331.113)" fill="#fed253"/>
  <path id="Trazado_129" data-name="Trazado 129" d="M303.282,472.72c.109,0,.18.112.234.2a8.607,8.607,0,0,1,.71,1.358c-.4.085-1.08.18-1.277-.17C302.844,473.935,302.969,472.7,303.282,472.72Z" transform="translate(-203.801 -341.985)" opacity="0.1"/>
  <path id="Trazado_130" data-name="Trazado 130" d="M326.446,467.2c-.082.078-.177-.082-.177-.2v-1.318a.193.193,0,0,1,.024-.105.16.16,0,0,1,.112-.054c.275-.031.5.2.679.428a7.172,7.172,0,0,1,.7,1.158l-1.437-.044" transform="translate(-219.226 -337.232)" opacity="0.1"/>
  <path id="Trazado_131" data-name="Trazado 131" d="M358.424,517.734a8.89,8.89,0,0,1,1-.818,15.065,15.065,0,0,1,3.135-1.277,4.137,4.137,0,0,0,2.54-2.1,4.993,4.993,0,0,0,.2-2.038,2.037,2.037,0,0,0-.149-.839,1.667,1.667,0,0,0-.537-.584,7.762,7.762,0,0,0-5.135-1.036,32.184,32.184,0,0,0-11.346,2.832.985.985,0,0,0-.475.34.971.971,0,0,0-.092.472,7.811,7.811,0,0,0,.384,2.958c.469,1.209,1.433,2.184,1.837,3.416.183.554.245,1.141.4,1.7a2.377,2.377,0,0,0,.954,1.42c1.341.8,2.608-.275,3.539-1.11Z" transform="translate(-233.276 -365.948)" fill="#3f3d56"/>
  <path id="Trazado_132" data-name="Trazado 132" d="M304.185,517.034l-1.722-3.756a13.143,13.143,0,0,1-.652-1.606c-.2-.655-.292-1.335-.475-1.993-.6-2.194-2.129-4.021-2.873-6.171a1.171,1.171,0,0,0-.278-.52.907.907,0,0,0-.757-.136,11.827,11.827,0,0,0-2.8,1.42c-.441.2-.917.34-1.358.574a1.7,1.7,0,0,0-.91,1.083,2.649,2.649,0,0,0,.37,1.525,17.221,17.221,0,0,1,1.175,6.7,7.121,7.121,0,0,1-.954,4.415c-1.742,2.377-.628,5.868.024,8.745.078.34.17.706.224,1.066a9.8,9.8,0,0,1,.078,1.358,10.631,10.631,0,0,1-.723,4.479,5.014,5.014,0,0,0,2.038.577q2.958.377,5.94.53a6.471,6.471,0,0,0,1.864-.1,3.4,3.4,0,0,0,2.51-3.328,4.2,4.2,0,0,0,.992,2.615,3.95,3.95,0,0,0,2.6.8,48.431,48.431,0,0,0,7.845-.221,1.358,1.358,0,0,0,.482-.112c.5-.251.53-.944.489-1.5-.075-1.043-.153-2.085-.278-3.121a12.775,12.775,0,0,1-.163-2,11.492,11.492,0,0,1,.34-2.038,23.107,23.107,0,0,0,.662-6.452,10.89,10.89,0,0,1-.065-1.593c.088-1.2.72-2.34.6-3.532a57.819,57.819,0,0,0-1.593-10.484,2.717,2.717,0,0,0-.927-1.6c-.679-.455-1.633-.217-2.411-.506a6.033,6.033,0,0,1-1.036-.615,4.755,4.755,0,0,0-2.34-.72,1.986,1.986,0,0,0-1.7.618,2.466,2.466,0,0,0-.34.927c-.492,2.072-1.07,4.119-1.647,6.167l-.554,1.963-1.484,5.271C304.236,516.331,304.334,516.5,304.185,517.034Z" transform="translate(-196.605 -360.544)" fill="#6c63ff"/>
  <path id="Trazado_133" data-name="Trazado 133" d="M329.723,400.25l32.85,34.521V437.7H347.926L323.24,405.48" transform="translate(-213.459 -264.323)" fill="#f1c0c0"/>
  <path id="Trazado_134" data-name="Trazado 134" d="M329.723,400.25l32.85,34.521V437.7H347.926L323.24,405.48" transform="translate(-213.459 -264.323)" opacity="0.1"/>
  <path id="Trazado_135" data-name="Trazado 135" d="M323.763,414.31l.105.037,24.268,29.709h14.437v2.927H347.926L323.24,414.765Z" transform="translate(-213.459 -273.608)" opacity="0.1"/>
  <path id="Trazado_136" data-name="Trazado 136" d="M341.3,501.45c-1.189.52-2.51,1.185-2.866,2.435a1.219,1.219,0,0,0,1.2,1.633,4.075,4.075,0,0,0,1.634-.3l7.013-2.316c.19-.061.408-.153.455-.34a.584.584,0,0,0-.068-.34c-.217-.53-.431-1.613-.886-1.983-.374-.3-1.114-.194-1.566-.187A12.7,12.7,0,0,0,341.3,501.45Z" transform="translate(-227.213 -360.022)" fill="#6c63ff"/>
  <path id="Trazado_137" data-name="Trazado 137" d="M362.5,501.8a11.279,11.279,0,0,1,3.481.54,6.2,6.2,0,0,1,2.883,1.97,2.159,2.159,0,0,1,.455.89c.068.34,1.175.543.931.774.744-.119.567.231,1.321.224a2.5,2.5,0,0,0,2.021-.8,2.625,2.625,0,0,0,.4-1.661,2.828,2.828,0,0,0-.224-1.175,3.469,3.469,0,0,0-1.841-1.426l-6.065-2.775a4.025,4.025,0,0,0-1.121-.4,4.189,4.189,0,0,0-.988.024L361,498.3a4.119,4.119,0,0,1,1.878,3.624" transform="translate(-242.162 -358.644)" fill="#3f3d56"/>
</svg>
