<svg xmlns="http://www.w3.org/2000/svg" width="1574.934" height="968.717" viewBox="0 0 1574.934 968.717">
  <g id="construction-illustration" transform="translate(0.02 0)">
    <path id="Trazado_74" data-name="Trazado 74" d="M1586,709.944a322.735,322.735,0,0,1-9.453,77.875q-3.182,12.876-7.394,25.218a297.831,297.831,0,0,1-11.927,29.845q-3.41,7.381-7.207,14.468a194.634,194.634,0,0,1-16.273,78.209,201.626,201.626,0,0,1-97.852,100.82,205.825,205.825,0,0,1-87.355,20.057H310.067a261.649,261.649,0,0,1-131.6-35.18l-.615-.348q-8.544-5-16.661-10.59A261.3,261.3,0,0,1,127,982.131a254.431,254.431,0,0,1-37.587-46.573A248.52,248.52,0,0,1,51.184,802.875C25.845,758.415,11.07,705.157,11.07,647.927c0-72.205,23.48-138.073,62.057-187.935a264.213,264.213,0,0,1,26.355-29.323A245.258,245.258,0,0,1,129.621,406a234.512,234.512,0,0,1,26.743-16.046c3.864-1.965,7.742-3.824,11.687-5.549,3.463-1.538,6.966-2.968,10.51-4.319q6.378-2.42,12.917-4.453t12.9-3.557q9.36-2.286,19.041-3.717c5.349-.789,10.7-1.337,16.046-1.752,4.252-.321,8.544-.495,12.863-.548h2.34c4.76,0,9.494.187,14.187.508.495-.989,1.03-1.992,1.524-2.968,1.872-3.57,3.811-7.127,5.763-10.6a.334.334,0,0,1,0-.094c.334-.615.669-1.217,1.016-1.805,1.578-2.848,3.223-5.669,4.907-8.464.776-1.337,1.538-2.594,2.327-3.851a10.237,10.237,0,0,1,.548-.909q1.2-2.006,2.447-4.011,6.191-9.895,12.877-19.442l1.137-1.631c.7-.99,1.337-1.952,2.113-2.942,1.845-2.581,3.744-5.175,5.656-7.715,1.337-1.818,2.674-3.624,4.118-5.349q5.215-6.686,10.7-13.371t11.392-13.2c.535-.6,1.07-1.19,1.631-1.778l5.71-6.231h0c.281-.294.521-.562.789-.829h0c.682-.735,1.337-1.471,2.073-2.18,3.062-3.249,6.2-6.432,9.36-9.6a509.712,509.712,0,0,1,51.212-44.62c.709-.562,1.431-1.1,2.139-1.631,3.4-2.554,6.846-5.081,10.3-7.568a541.944,541.944,0,0,1,59.382-37.039c1.417-.816,2.861-1.578,4.319-2.327a566.945,566.945,0,0,1,56.815-26.154c10.577-4.185,21.394-8.116,32.278-11.713,7.247-2.38,14.521-4.64,21.889-6.766q17.276-4.974,34.792-8.919A619.559,619.559,0,0,1,732.683,88.6q16.045-.816,32.452-.842A621.775,621.775,0,0,1,921.58,107.55a5.642,5.642,0,0,0,4.854,2.527h4.493c1.952.535,3.891,1.07,5.843,1.631q16.353,4.707,32.238,10.283l2.674.963a575.563,575.563,0,0,1,76.1,33.428,549.128,549.128,0,0,1,63.715,39.365q4.693,3.37,9.253,6.793,5.536-3.543,11.259-6.793a221.455,221.455,0,0,1,46.639-19.883,212.739,212.739,0,0,1,104.618-4.092c44.46,9.427,84.708,32.827,117.213,66.108a273.508,273.508,0,0,1,35.153,44.634c.735,1.15,1.471,2.313,2.18,3.49a294.175,294.175,0,0,1,22.384,44.62c.227.575.455,1.11.655,1.671a308.979,308.979,0,0,1,13.773,44.594c.16.776.348,1.538.508,2.313a321.092,321.092,0,0,1,6.579,44.62,8.653,8.653,0,0,0,.107,1.645q.843,11.647.856,23.534c0,7.087-.241,14.12-.682,21.1,0,.762-.107,1.551-.174,2.34-.12,2.019-.294,4.011-.468,6.044a253.765,253.765,0,0,1,28.588,26.97q5.843,6.378,11.312,13.238a281.623,281.623,0,0,1,29.15,44.62C1573.007,605.994,1586,656.2,1586,709.944Z" transform="translate(-11.09 -87.76)" fill="#364f6b" opacity="0.1"/>
    <path id="Trazado_75" data-name="Trazado 75" d="M1392.856,806.015c0,9.133-31.463,17.69-86.366,25.045H268.016a261.653,261.653,0,0,1-131.6-35.18l-.615-.348c15.778-5.75,44.259-11.112,83.023-15.952h0l1.738-.214c17.383-2.126,36.811-4.145,58.045-6.057a13.242,13.242,0,0,0,1.618-.147h0q25.272-2.247,53.766-4.212c.6,0,1.19-.107,1.792-.134q10.991-.789,22.437-1.5h0l2.942-.187c55.558-3.45,118.711-6.2,187.2-8.023h.08q14.388-.4,29.083-.709,16.34-.388,33.081-.682c8.518-.187,17.142-.321,25.793-.455h.2c39.031-.588,79.359-.883,120.6-.883,101.97,0,198.351,1.859,283.754,5.2h.241c13.131.508,26.021,1.07,38.59,1.645l10.7.508q21.274,1.016,41.451,2.18h0C1290.111,774.913,1392.856,789.528,1392.856,806.015Z" transform="translate(30.961 137.657)" fill="#6c63ff" opacity="0.1"/>
    <g id="Grupo_2" data-name="Grupo 2" transform="translate(830.838 528.152)" opacity="0.2">
      <path id="Trazado_76" data-name="Trazado 76" d="M698.575,756.619a25.387,25.387,0,0,1-.495,4.292q-13.96-2.22-28.08-4.011v-1.15a22.571,22.571,0,0,1,3.343-11.339c2.754-4.359,6.94-7.087,11.553-6.94s8.611,3.129,11.085,7.635a22.557,22.557,0,0,1,2.594,11.513Z" transform="translate(-619.778 -396.872)" fill="#3f3d56"/>
      <ellipse id="Elipse_3" data-name="Elipse 3" cx="18.733" cy="14.307" rx="18.733" ry="14.307" transform="translate(50.376 354.724) rotate(-88.19)" fill="#3f3d56"/>
      <ellipse id="Elipse_4" data-name="Elipse 4" cx="18.733" cy="14.307" rx="18.733" ry="14.307" transform="translate(51.106 331.831) rotate(-88.19)" fill="#3f3d56"/>
      <ellipse id="Elipse_5" data-name="Elipse 5" cx="18.733" cy="14.307" rx="18.733" ry="14.307" transform="translate(51.822 308.939) rotate(-88.19)" fill="#3f3d56"/>
      <ellipse id="Elipse_6" data-name="Elipse 6" cx="18.733" cy="14.307" rx="18.733" ry="14.307" transform="translate(52.538 286.046) rotate(-88.19)" fill="#3f3d56"/>
      <path id="Trazado_77" data-name="Trazado 77" d="M651.2,592.129a66.4,66.4,0,0,1-5.081-8.023l37.787-4.987-40.676-.976a68.7,68.7,0,0,1,.414-54.341l53.646,30.019-49.14-38.563A68.568,68.568,0,1,1,758.92,595.485a67.924,67.924,0,0,1,7.421,12.743l-49.594,23.8,52.59-15.818a68.649,68.649,0,0,1-13.131,64.062,68.568,68.568,0,1,1-107.72-3.4,68.568,68.568,0,0,1,2.674-84.748Z" transform="translate(-632.44 -482.747)" fill="#3fc1c9"/>
      <path id="Trazado_78" data-name="Trazado 78" d="M772.251,599.41a68.194,68.194,0,0,1-16.046,41.906,68.568,68.568,0,1,1-107.72-3.4C639.7,625.979,772.492,591.722,772.251,599.41Z" transform="translate(-632.44 -443.791)" opacity="0.1"/>
    </g>
    <g id="Grupo_3" data-name="Grupo 3" transform="translate(627.593 528.152)" opacity="0.2">
      <path id="Trazado_79" data-name="Trazado 79" d="M546.575,756.619a25.4,25.4,0,0,1-.495,4.292q-13.96-2.22-28.08-4.011v-1.15a22.57,22.57,0,0,1,3.343-11.339c2.755-4.359,6.94-7.087,11.553-6.94s8.611,3.129,11.085,7.635a22.557,22.557,0,0,1,2.594,11.513Z" transform="translate(-467.778 -396.872)" fill="#3f3d56"/>
      <ellipse id="Elipse_7" data-name="Elipse 7" cx="18.733" cy="14.307" rx="18.733" ry="14.307" transform="translate(50.361 354.729) rotate(-88.19)" fill="#3f3d56"/>
      <ellipse id="Elipse_8" data-name="Elipse 8" cx="18.733" cy="14.307" rx="18.733" ry="14.307" transform="translate(51.09 331.837) rotate(-88.19)" fill="#3f3d56"/>
      <ellipse id="Elipse_9" data-name="Elipse 9" cx="18.733" cy="14.307" rx="18.733" ry="14.307" transform="translate(51.806 308.944) rotate(-88.19)" fill="#3f3d56"/>
      <ellipse id="Elipse_10" data-name="Elipse 10" cx="18.733" cy="14.307" rx="18.733" ry="14.307" transform="translate(52.522 286.052) rotate(-88.19)" fill="#3f3d56"/>
      <path id="Trazado_80" data-name="Trazado 80" d="M499.2,592.129a66.4,66.4,0,0,1-5.081-8.023l37.787-4.988-40.676-.976a68.7,68.7,0,0,1,.414-54.341l53.646,30.019-49.14-38.563A68.568,68.568,0,1,1,606.92,595.485a67.921,67.921,0,0,1,7.421,12.743l-49.594,23.8,52.59-15.818a68.649,68.649,0,0,1-13.131,64.062,68.568,68.568,0,1,1-107.72-3.4,68.568,68.568,0,0,1,2.674-84.748Z" transform="translate(-480.44 -482.747)" fill="#3fc1c9"/>
      <path id="Trazado_81" data-name="Trazado 81" d="M620.251,599.41a68.194,68.194,0,0,1-16.046,41.906,68.568,68.568,0,1,1-107.72-3.4C487.7,625.979,620.492,591.722,620.251,599.41Z" transform="translate(-480.44 -443.791)" opacity="0.1"/>
    </g>
    <g id="Grupo_4" data-name="Grupo 4" transform="translate(1109.959 210.205)" opacity="0.2">
      <path id="Trazado_82" data-name="Trazado 82" d="M968.467,772.051a49.872,49.872,0,0,1-.976,8.13q-26.876-4.292-54.141-7.675V770.3a43.458,43.458,0,0,1,6.445-21.836c5.349-8.384,13.371-13.639,22.237-13.371s16.581,6.03,21.394,14.708a43.5,43.5,0,0,1,5.041,22.25Z" transform="translate(-816.857 -79.728)" fill="#3f3d56"/>
      <ellipse id="Elipse_11" data-name="Elipse 11" cx="36.076" cy="27.558" rx="36.076" ry="27.558" transform="translate(96.841 682.623) rotate(-88.19)" fill="#3f3d56"/>
      <ellipse id="Elipse_12" data-name="Elipse 12" cx="36.076" cy="27.558" rx="36.076" ry="27.558" transform="translate(98.231 638.55) rotate(-88.19)" fill="#3f3d56"/>
      <ellipse id="Elipse_13" data-name="Elipse 13" cx="36.076" cy="27.558" rx="36.076" ry="27.558" transform="translate(99.634 594.477) rotate(-88.19)" fill="#3f3d56"/>
      <ellipse id="Elipse_14" data-name="Elipse 14" cx="36.076" cy="27.558" rx="36.076" ry="27.558" transform="translate(99.481 548.499) rotate(-88.282)" fill="#3f3d56"/>
      <path id="Trazado_83" data-name="Trazado 83" d="M877.2,455.3a132.741,132.741,0,0,1-9.775-15.417l72.74-9.6L861.877,428.4a132.243,132.243,0,0,1,.776-104.618L965.946,381.56l-94.589-74.238a132,132,0,1,1,213.233,154.52,131.985,131.985,0,0,1,14.294,24.536l-95.485,45.85,101.234-30.487a132.042,132.042,0,0,1-25.178,123.217,132,132,0,1,1-207.39-6.539A132.042,132.042,0,0,1,877.2,455.29Z" transform="translate(-841.186 -244.965)" fill="#3fc1c9"/>
      <path id="Trazado_84" data-name="Trazado 84" d="M1110.25,469.37a131.494,131.494,0,0,1-30.754,80.683,132,132,0,1,1-207.39-6.539C855.071,520.5,1110.718,454.568,1110.25,469.37Z" transform="translate(-841.172 -170.032)" opacity="0.1"/>
    </g>
    <path id="Trazado_85" data-name="Trazado 85" d="M157.82,893.631l14.027-.04h19.776l25-406.2L464.252,74.179,453.488,62.627V33.37l-267.8,444.451Z" transform="translate(53.214 11.25)" fill="#f1c0c0"/>
    <path id="Trazado_86" data-name="Trazado 86" d="M169.43,886.214h18.279l25-406.2L460.338,66.8,449.574,55.25,194.154,473.827Z" transform="translate(57.128 18.627)" opacity="0.1"/>
    <path id="Trazado_87" data-name="Trazado 87" d="M126.91,686.421l641.625,49.1.548.04,620.953-38.189.468-.027V671.124L706.292,658.568l-570.837-.548h-4.172l-.455,2.942Z" transform="translate(42.793 221.843)" fill="#f1c0c0"/>
    <path id="Trazado_88" data-name="Trazado 88" d="M126.91,686.421l641.625,49.1.548.04,620.953-38.189.468-.508V671.672h-.548L768.535,692.424l-633.081-34.4h-.094l-1.123.735-3.41,2.206Z" transform="translate(42.793 221.843)" opacity="0.1"/>
    <path id="Trazado_89" data-name="Trazado 89" d="M126.91,686.235l641.625,49.1v-43.1l-634.3-33.669-3.41,2.206Z" transform="translate(42.793 222.029)" opacity="0.1"/>
    <path id="Trazado_90" data-name="Trazado 90" d="M378.88,62l282.871,303.61-8.745,534.053,24.028,2.9.4.054h24.028l2.875-514.076,529.68,176.93,8.932,315.03,19.335,2.166,6.552.735-15.163-339.78L699.967,349.231,396.356,33.6H378.88Z" transform="translate(127.741 11.328)" fill="#f1c0c0"/>
    <path id="Trazado_91" data-name="Trazado 91" d="M620.65,291.7l2.18,9.828,529.68,176.93,8.932,315.03,19.335,2.166-15.163-323.748Z" transform="translate(209.251 98.343)" opacity="0.1"/>
    <path id="Trazado_92" data-name="Trazado 92" d="M378.88,62l282.871,303.61-8.745,534.053,24.028,2.9,6.552-554.431L378.88,33.6Z" transform="translate(127.741 11.328)" opacity="0.1"/>
    <path id="Trazado_93" data-name="Trazado 93" d="M621.42,460.735l194.273,38.256.067.013,340.261,67.031,15.578-6.244-.054-1.1-1.016-21.728L621.621,426.05Z" transform="translate(209.511 143.637)" fill="#f1c0c0"/>
    <path id="Trazado_94" data-name="Trazado 94" d="M766.76,480.61l340.261,67.031L1122.6,541.4l-.054-1.1Z" transform="translate(258.51 162.032)" opacity="0.1"/>
    <path id="Trazado_95" data-name="Trazado 95" d="M776.49,350.56l5.255,289.276,2.714,148.409,23.921-.8,15.056-.508-4.68-432.189-10.376-3.45-2.273-.735Z" transform="translate(261.791 118.187)" fill="#f1c0c0"/>
    <path id="Trazado_96" data-name="Trazado 96" d="M776.65,350.51v.067l5.041,289.276,2.714,148.409,23.921-.8V350.51Z" transform="translate(261.844 118.17)" opacity="0.1"/>
    <path id="Trazado_97" data-name="Trazado 97" d="M517.292,498.213a30.476,30.476,0,0,1,4.011,2.608,26.54,26.54,0,0,1,4.011,4.4c5.736,7.421,11.031,16.046,10.47,25.406a10.336,10.336,0,0,1-2.982,7.354c-2.367,2.019-5.763,2.113-8.865,2.113-3.37,0-6.913,0-9.828-1.738s-5.349-5.121-8.8-5.041a4.506,4.506,0,0,1-1.471,0c-1.19-.388-1.431-1.952-2.206-2.942-1.337-1.778-4.158-1.337-6.258-.562s-4.426,1.939-6.5,1.043a6.751,6.751,0,0,1-2.821-2.821c-4.961-8.023-6.017-17.664-6.953-26.983-.575-5.669-4.961-25,7.14-20.605,5.349,1.925,10.349,5.776,15.217,8.6Z" transform="translate(146.282 44.411)" fill="#3f3d56"/>
    <path id="Trazado_98" data-name="Trazado 98" d="M499.031,496.836a5.964,5.964,0,0,0,7.341-.294,11.058,11.058,0,0,0,3.57-6.926c1.337-.415,2.019,1.337,2.875,2.407,1.5,1.818,4.546,1.792,5.91,3.731.949,1.337.735,3.2,1.4,4.707.869,1.952,3.022,2.968,4.493,4.546a15.482,15.482,0,0,1,2.942,5.87l2.193,6.579a32.515,32.515,0,0,1,2.006,8.518,11.032,11.032,0,0,1-2.541,8.143c-2.942,3.169-7.769,3.5-12.034,3.41a15.485,15.485,0,0,1-4.225-.495c-3.784-1.177-6.2-4.987-7.207-8.825s-.9-7.862-1.484-11.794a46.226,46.226,0,0,0-3.343-11.205c-1.177-2.781-4.413-6.926-4.359-9.881C497.533,495.325,498.228,496.208,499.031,496.836Z" transform="translate(152.59 47.7)" fill="#3f3d56"/>
    <path id="Trazado_99" data-name="Trazado 99" d="M506.6,489.216a22.079,22.079,0,0,1-1.083-5.87c0-4.011,1.832-7.782,3.677-11.366l-15.283,2.073c-1.845.254-3.9.628-4.947,2.166a5.349,5.349,0,0,0,0,4.934,25.216,25.216,0,0,1,1.819,4.774,23.836,23.836,0,0,0,.495,4.292,9.089,9.089,0,0,0,1.966,2.768c4.372,4.84,7.648,10.55,10.911,16.206-.094-.16,9.213-7.368,8.838-9.721-.214-1.337-2.9-2.942-3.757-4.225A21.516,21.516,0,0,1,506.6,489.216Z" transform="translate(149.822 41.775)" fill="#be6f72"/>
    <path id="Trazado_100" data-name="Trazado 100" d="M658.9,358.04v13.171L433.368,415.2l-11.7,7.087H381.3v-7.421l221.59-53.539Z" transform="translate(128.557 120.709)" fill="#f1c0c0"/>
    <path id="Trazado_101" data-name="Trazado 101" d="M658.9,367.89,433.368,411.882l-11.7,7.087H381.3l223.235-47.776Z" transform="translate(128.557 124.03)" opacity="0.1"/>
    <path id="Trazado_102" data-name="Trazado 102" d="M474.051,727.021a17.477,17.477,0,0,0-21.261-4.52,5.6,5.6,0,0,0-1.952,1.524c-1.337,1.872-.481,4.453-.361,6.766.308,5.643-4.185,10.229-8.223,14.174-2.166,2.113-4.372,4.372-5.349,7.247s-.254,6.525,2.367,8.023a9.854,9.854,0,0,0,3.664,1.016,39.539,39.539,0,0,0,12.97.361c4.266-.816,8.451-3.236,10.3-7.167a7.556,7.556,0,0,1,1.725-2.848c2.353-1.859,5.964.321,8.638-1,2.206-1.1,2.3-2.821,2.327-5.094C478.971,739.216,478.035,732.1,474.051,727.021Z" transform="translate(132.335 125.618)" fill="#6c63ff"/>
    <path id="Trazado_103" data-name="Trazado 103" d="M495.879,729.268c1.645,4.332,1.872,9.052,2.086,13.679.12,2.674.2,5.536-1.244,7.8s-4.265,3.45-6.966,4.011c-5.576,1.15-12.034.067-15.631-4.359-2.755-3.383-3.329-8.023-2.821-12.409.428-3.6,1.337-7.809-1.244-10.363-.669-.682-1.538-1.163-2.153-1.9-1.337-1.631-1.123-4.092-.4-6.1a26.483,26.483,0,0,0,2.1-6.031c.107-.989,18.1.7,19.763,1.511,2.26,1.11,1.912,2.968,2.594,5.215C492.91,723.451,494.729,726.272,495.879,729.268Z" transform="translate(142.598 123.131)" fill="#6c63ff"/>
    <path id="Trazado_104" data-name="Trazado 104" d="M512.932,582.622c3.53,2.287,4.894,6.779,5.442,10.951,1.511,11.432-1.137,22.985-1.337,34.525-.187,16.166,4.493,32.626.495,48.284-2.393,9.36-.361,20.057-2.607,29.511-.669,2.808-1.9,5.456-2.541,8.263-1.337,6.084.067,12.449,1.952,18.4a19.005,19.005,0,0,1,1.137,4.988,17.944,17.944,0,0,1-1.952,7.542L505.5,764.058c-.9,2.126-4.426,2.474-6.686,2.755-4.252.508-9,.869-12.382-1.765s-4.2-7.047-4.72-11.165a171.152,171.152,0,0,1-1.337-23.841,19.644,19.644,0,0,0-.548-6.191c-.735-2.287-2.353-4.266-2.795-6.686-.562-3.129,1.03-6.2,1.618-9.36a28.2,28.2,0,0,0-.134-8.678c-.522-4.279-1.123-8.558-1.805-12.81-.963-5.95.415-11.82,1.337-17.784.869-5.6-.241-11.312-1.337-16.875a46.518,46.518,0,0,1-1.671,13.371c-.709,2.126-1.725,4.158-2.34,6.324-2.741,9.721,3.1,19.923,2.273,29.992-.388,4.707-2.233,9.36-1.712,14,.361,3.4,1.939,6.512,3.022,9.748s1.645,6.94,0,9.962c-4.346,8.21-1.1,19.375,2.795,27.8a37.531,37.531,0,0,1,2.059,4.627c1.15,3.8.187,7.876.495,11.834a7.462,7.462,0,0,1-6.271-1.885c-.588-.615-1.07-1.337-1.645-1.979a16.326,16.326,0,0,0-5.589-3.49,7.342,7.342,0,0,0-4.011-.922A8.024,8.024,0,0,0,460.3,773.4a37.344,37.344,0,0,1-4.2,3.2,4.973,4.973,0,0,1-2.139.949,1.885,1.885,0,0,1-1.966-1,2.379,2.379,0,0,1-.147-.7,105.813,105.813,0,0,1-.789-12.168c0-6.993-8.371-11.807-9.427-18.72-.842-5.576.722-11.259.2-16.875-.254-2.888-1.056-5.723-1-8.611,0-1.872.428-3.7.575-5.562a41.6,41.6,0,0,0-.094-6.191l-.415-6.458c-.4-6.378-.842-12.89-3.356-18.72a63.608,63.608,0,0,1-5.215-21.5c-.267-4.68-.094-9.36-.628-14.053-.481-4.239-1.551-8.451-1.244-12.7.254-3.289,1.337-6.472,1.591-9.761.521-6.325-1.885-12.476-3.771-18.533s-3.276-12.77-.8-18.613a6.111,6.111,0,0,1,1.711-2.487,7.462,7.462,0,0,1,3.156-1.177,244.845,244.845,0,0,1,69.825-4.453,23.187,23.187,0,0,1,10.764,3.356Z" transform="translate(128.847 77.683)" fill="#3f3d56"/>
    <circle id="Elipse_15" data-name="Elipse 15" cx="21.421" cy="21.421" r="21.421" transform="translate(544.449 475.446)" fill="#be6f72"/>
    <path id="Trazado_105" data-name="Trazado 105" d="M433.263,484.653a7.648,7.648,0,0,1,0,3.731,8.451,8.451,0,0,1-1.4,2.354A60.433,60.433,0,0,1,425,498.2a12.422,12.422,0,0,0,6.4,6.325,37.188,37.188,0,0,0,8.839,2.527,9.264,9.264,0,0,0,8.665-1.5l11.9-7.127a23.777,23.777,0,0,0,4.947-3.57,12.182,12.182,0,0,0,3.45-8.371,2.3,2.3,0,0,0-.428-1.578,2.808,2.808,0,0,0-1.631-.682c-4.185-.923-7.488-4.319-9.36-8.17a43.267,43.267,0,0,1-3.249-12.4l-12.689,6.686c-1.885,1-3.757,2.006-5.71,2.875-1.244.562-3.757,1.03-4.64,2.166C429.814,477.486,432.822,482.126,433.263,484.653Z" transform="translate(128.461 38.97)" fill="#be6f72"/>
    <path id="Trazado_106" data-name="Trazado 106" d="M426.182,490.021a14.107,14.107,0,0,0-4.105,5.549c-.829,2.674,0,5.5.749,8.143a242.956,242.956,0,0,1,8.023,34.485c1.123,8.023,1.538,16.166,2.086,24.282,1.123,16.554,2.754,42.949,4.934,59.4,8.023.361,15.845-1.979,23.8-2.835,14.869-1.578,30.179,2.032,44.741-1.337-3.53-13.946-7.06-37.761-10.59-51.694a98.636,98.636,0,0,1-3.236-16.781c-.308-4.078-.12-8.17-.067-12.275.12-8.023-.321-16.046-.762-24.068-.508-9.36-1.016-18.72-3.236-27.879a5.188,5.188,0,0,0-1.551-3.062c-1.337-.976-3.075-.628-4.667-.415a20.3,20.3,0,0,1-13.88-3.289c-1.765-1.2-4.132-2.674-5.776-1.337a5.75,5.75,0,0,0-1.337,2.848,14.241,14.241,0,0,1-8.37,8.25,41.891,41.891,0,0,1-11.847,2.434,5.816,5.816,0,0,1-3.677-.415c-1.9-1.163-2.032-5.349-4.426-5.629C430.889,484.151,427.6,488.671,426.182,490.021Z" transform="translate(127.359 43.256)" fill="#3f3d56"/>
    <path id="Trazado_107" data-name="Trazado 107" d="M463.8,522.45c-4.934-4.72-7.1-11.566-10.7-17.383a38.7,38.7,0,0,0-9.24-10.162,27.562,27.562,0,0,1-5.028-4.265c-1.27-1.564-2.233-3.65-4.158-4.252a5.028,5.028,0,0,0-4.506,1.243,44.332,44.332,0,0,0-3.343,3.557c-5.669,5.87-15.631,6.686-20.124,13.478a11.045,11.045,0,0,0-2.394,5.014,38.858,38.858,0,0,0,7.14,27.946,9.494,9.494,0,0,0,4.947,4.011,15.484,15.484,0,0,0,.963,7.354,196.666,196.666,0,0,0,9.106,24.8,60.006,60.006,0,0,0-1.792,9.614c-.936,8.17-.067,16.46-.949,24.643-.722,6.686-2.674,13.2-2.741,19.9,0,1.07.094,2.34,1.016,2.888a3.075,3.075,0,0,0,1.591.334l16.447.495c9.547.281,19.188.562,28.588-1.2a11.9,11.9,0,0,0,3.6-1.137c3.182-1.778,4.239-5.79,4.747-9.36a81.568,81.568,0,0,0,.789-13.987c1.992,6.3,4.359,12.81,10.376,15.538,3.182,1.444,6.819,1.337,10.309,1.244a194.111,194.111,0,0,0,22.451-2.313,2.955,2.955,0,0,0,3.276-3.437l.08-7.3c.16-14.829-3.517-29-4.947-43.765-.455-4.653-.414-9.36-1.551-13.92-.468-1.912-1.15-3.784-1.564-5.71a40.818,40.818,0,0,1-.669-5.71L514.48,525.9c-.495-6.806-1.2-13.371-1.725-20.164a97.6,97.6,0,0,0-2.862-19.6c-1.163-4.011-3.583-8.558-7.769-9.052-2.233-.254-4.4.722-6.525,1.4a26.369,26.369,0,0,1-16.046-.067,22.594,22.594,0,0,0-5-1.337,4.907,4.907,0,0,0-4.573,1.9,6.861,6.861,0,0,0-.709,3.37C468.643,495.708,467.479,509.467,463.8,522.45Z" transform="translate(121.376 43.48)" fill="#6c63ff"/>
    <path id="Trazado_108" data-name="Trazado 108" d="M441.987,516.256c-6.164-6.5-12.489-13.117-20.431-17.249-3.129-1.631-6.686-2.862-10.149-2.246s-6.686,3.624-6.525,7.14c.107,2.18,1.431,4.1,1.845,6.244.481,2.407-.214,4.974.535,7.3a12.356,12.356,0,0,0,2.674,4.1L419.4,532.77c4.011,4.68,8.023,9.427,13.184,12.663s11.847,4.747,17.516,2.447a21.528,21.528,0,0,0,9.6-8.812c2.353-3.744,4.011-7.836,6.218-11.7a58.1,58.1,0,0,1,13.371-16.22c-2.781-.722-6.271-1.738-8.023-4.011a13.257,13.257,0,0,1-1.27-2.3l-2.166-4.68a5.349,5.349,0,0,0-4.011,1.511,33.628,33.628,0,0,1-2.982,3.035c-1.885,1.417-4.439,1.805-6.151,3.423a16.3,16.3,0,0,0-1.792,2.246A15,15,0,0,1,441.987,516.256Z" transform="translate(121.677 50.075)" fill="#3f3d56"/>
    <path id="Trazado_109" data-name="Trazado 109" d="M464.488,499.974c4.64-8.464,4.426-18.613,5.75-28.174a12.863,12.863,0,0,1,2.554-6.993c2.674-3.022,7.394-3.062,11.432-2.674,1.19.134,2.674.7,2.607,1.885a2.406,2.406,0,0,1-.6,1.137,31.811,31.811,0,0,0-6.606,17.543c2.1,1.458,5.349-1.538,7.368,0,1.337,1.123.722,3.343-.08,4.947q-2.795,5.576-5.763,11.072a35.554,35.554,0,0,1-6.111,8.812c-1.7,1.631-3.691,2.915-5.415,4.52-4.011,3.757-6.432,9.066-10.577,12.729a2.166,2.166,0,0,1-1.337.682,2.246,2.246,0,0,1-1.4-.628,20.273,20.273,0,0,1-5.054-6.111c-1.578-2.915-1.337-3.771,1.15-5.83C457.054,509.214,461.587,505.269,464.488,499.974Z" transform="translate(136.976 38.398)" fill="#be6f72"/>
    <path id="Trazado_110" data-name="Trazado 110" d="M433.153,511.509c.8.495,1.792,1.056,2.674.642a2.781,2.781,0,0,0,.9-.869,31.475,31.475,0,0,0,3.8-6.605,2.54,2.54,0,0,0,.281-1.07c0-.856-.762-1.484-1.471-1.979a54.5,54.5,0,0,0-12.155-5.776c-3.53-1.337-7.221-2.5-10.965-2.166A10.457,10.457,0,0,0,408.9,497.4c-2.674,3.436,1.805,4.479,4.613,5.723C420.008,506.08,427.042,507.791,433.153,511.509Z" transform="translate(122.756 49.073)" fill="#6c63ff"/>
    <path id="Trazado_111" data-name="Trazado 111" d="M423.685,527.059a1.966,1.966,0,0,0,.562,1.685c.388-1.9-.12-3.9.281-5.817.588-2.875,3.383-5.041,3.624-7.929C423.03,513.995,423.725,523.957,423.685,527.059Z" transform="translate(128.011 56.254)" opacity="0.1"/>
    <path id="Trazado_112" data-name="Trazado 112" d="M603.033,358.04v13.171l-54.368,3.3-1.645-13.184Z" transform="translate(184.428 120.709)" opacity="0.2"/>
    <path id="Trazado_113" data-name="Trazado 113" d="M421.507,469.707c3.4-2.768,1.431-8.571,3.731-12.288,1.337-2.032,3.6-3.1,5.817-4.011a26.462,26.462,0,0,1,8.491-2.353,9.854,9.854,0,0,1,8.023,2.955c.869.99,1.458,2.193,2.273,3.223a8.691,8.691,0,0,0,8.424,2.915c1.778-.4,3.624-1.752,3.5-3.57a5.041,5.041,0,0,0-1.6-2.861l-3.824-4.239c-4.346-4.814-9.173-9.922-15.551-11.125-4.439-.842-8.986.348-13.264,1.778-1.725.575-3.664,1.431-4.145,3.182-.321,1.2.16,2.514-.12,3.731-.548,2.42-3.65,3.236-5.094,5.268s-1,4.439-1.417,6.686-1.618,4.439-1.765,6.766c-.094,1.4.615,4.011,2.193,4.52S420.531,468.035,421.507,469.707Z" transform="translate(125.081 30.343)" fill="#3f3d56"/>
    <path id="Trazado_114" data-name="Trazado 114" d="M460.758,457.418a40.115,40.115,0,0,0-7.114-16.26A28.494,28.494,0,0,0,440.982,431.1a18.131,18.131,0,0,0-15.765,1.244,22.892,22.892,0,0,0-7.876,9.935c-3.463,7.461-4.747,16.581-.722,23.748,1.6-1.952,4.359-1.07,6.793-1.778,3.049-.869,5.629-2.9,8.531-4.172C440.7,456.215,451.4,459.344,460.758,457.418Z" transform="translate(124.794 27.575)" fill="#fed253"/>
    <path id="Trazado_115" data-name="Trazado 115" d="M417.614,451.984c-.308-2.407-.508-5.2,1.2-6.913a.869.869,0,0,1,.709-.321.922.922,0,0,1,.548.481,29.934,29.934,0,0,1,2.514,4.921,5.108,5.108,0,0,0-5.349,2.073" transform="translate(125.845 32.595)" opacity="0.1"/>
    <path id="Trazado_116" data-name="Trazado 116" d="M441.048,446.756l-.481-4.774a2.179,2.179,0,0,1,.094-1.177,1.511,1.511,0,0,1,1.952-.535,4.011,4.011,0,0,1,1.564,1.565,28.082,28.082,0,0,1,2.755,5.442,16.179,16.179,0,0,0-6.512.08" transform="translate(133.66 31.03)" opacity="0.1"/>
    <path id="Trazado_117" data-name="Trazado 117" d="M453.291,502.21v10.911l-9.213.615H395.62V502.21Z" transform="translate(133.385 169.314)" opacity="0.1"/>
    <path id="Trazado_118" data-name="Trazado 118" d="M491.92,549.979v11.526H434.249L281.04,369.586V360.52h32.118Z" transform="translate(94.756 121.545)" fill="#f1c0c0"/>
    <path id="Trazado_119" data-name="Trazado 119" d="M491.92,549.979v11.526H434.249L281.04,369.586V360.52h32.118Z" transform="translate(94.756 121.545)" opacity="0.1"/>
    <path id="Trazado_120" data-name="Trazado 120" d="M491.92,549.979v11.526H434.249L281.04,369.586V360.52L435.078,549.979Z" transform="translate(94.756 121.545)" opacity="0.1"/>
    <path id="Trazado_121" data-name="Trazado 121" d="M311.178,736.111a4.011,4.011,0,0,1-3.5,4.72c-3.717,1.257-7.662,2.5-10.3,5.349s-3.156,8.13,0,10.443a10.149,10.149,0,0,0,5.349,1.458c6.057.415,12.369.334,17.864-2.233,3.931-1.818,7.635-4.921,11.954-4.64,2.233.134,4.613,1.177,6.605.161s2.554-3.851,2.567-6.218a46.038,46.038,0,0,0-2.206-14.561c-.2-.642-8.7-1.137-9.721-1.337l-10.309-1.337c-1.952-.254-6.164-1.725-7.7-.094S311.178,734.172,311.178,736.111Z" transform="translate(84.702 127.773)" fill="#6c63ff"/>
    <path id="Trazado_122" data-name="Trazado 122" d="M353.25,713.877a32.294,32.294,0,0,0,2.113,7.007c1.431,3.637,3.263,7.5,6.766,9.266,3.182,1.591,7.087,1.016,10.323-.495a8.5,8.5,0,0,0,3.436-2.607,10.35,10.35,0,0,0,1.337-6c0-5.175-.308-10.523-2.674-15.123-2.032-4.011-5.576-7.461-5.629-11.9l-12.181,2.353a3.477,3.477,0,0,0-1.792.709,3.088,3.088,0,0,0-.776,1.457A39.806,39.806,0,0,0,353.25,713.877Z" transform="translate(104.151 116.633)" fill="#6c63ff"/>
    <path id="Trazado_123" data-name="Trazado 123" d="M244.428,619.438c-.508,4.306-.294,8.919,1.952,12.636s6.98,6.178,11.072,4.693a1.618,1.618,0,0,0,1-.762,1.885,1.885,0,0,0-.174-1.337,19.736,19.736,0,0,1,.415-14.869c.267-.615.842-1.337,1.471-1.1a1.338,1.338,0,0,1,.6.615,6.993,6.993,0,0,1,.936,3.69,13.723,13.723,0,0,0-.107,3.544c.254,1.15,1.484,2.233,2.554,1.738a2.675,2.675,0,0,0,1.217-1.725c2.982-8.625,1.631-18.051.267-27.077A1.417,1.417,0,0,0,264.043,598c-6.311-.628-9.761-2.139-13.371,3.731C247.57,606.682,244.428,613.488,244.428,619.438Z" transform="translate(67.507 84.044)" fill="#6c63ff"/>
    <path id="Trazado_124" data-name="Trazado 124" d="M300.528,598.428c-1.872,7.782-3.757,15.658-3.878,23.654a108.668,108.668,0,0,0,1.123,14.882l1.4,11.58c.481,3.9.949,7.8,1.631,11.66a30.956,30.956,0,0,1,.709,6.057,32.435,32.435,0,0,1-.949,5.95,69.534,69.534,0,0,0-1.4,12.435c-.147,6.686.682,13.371,1.2,20.057a223.369,223.369,0,0,1-.468,40.007,15,15,0,0,0,2.193,10.309,13.264,13.264,0,0,1,1.939,3.182c1,3.062-1.337,6.124-1.939,9.266a9.36,9.36,0,0,0,7.782,10.7c10.7,1.27,21.688.7,31.329,5.589,1.016-2.969-1.2-6.338-.187-9.36.642-1.872,2.407-3.089,3.61-4.667a13.586,13.586,0,0,0,2.3-8.156,29.8,29.8,0,0,0-1.979-11.058c-1.137-2.942-2.768-5.843-2.674-9,0-1.551.548-3.182-.08-4.613a7.207,7.207,0,0,0-1.725-2.153,27.184,27.184,0,0,1-6.993-15.845,72.983,72.983,0,0,1,.562-17.57c.655-5.536,1.538-11.379,5.054-15.7a100.728,100.728,0,0,1,2.821-39.111c.348-1.177.9-2.541,2.1-2.821a3,3,0,0,1,2.567,1.016c2.1,1.966,3.1,4.814,4.011,7.542,1,2.955,2.019,6.111,1.257,9.133-.321,1.337-.963,2.514-1.337,3.8a11.259,11.259,0,0,0,.4,7.849,7.541,7.541,0,0,1,.963,2.955,8.181,8.181,0,0,1-.8,2.567,11.821,11.821,0,0,0,1.11,9.561,34.616,34.616,0,0,0,6.244,7.662,28.08,28.08,0,0,0,.869,15.457,1.952,1.952,0,0,1,.174,1.484c-.241.508-.856.7-1.337,1.056-1.337,1.1-.508,3.169.388,4.6a105.468,105.468,0,0,0,8.116,11.259c2.674,3.2,2.434,9.36,6.418,10.51a12.032,12.032,0,0,0,5.081,0c3.931-.6,8.317-1.738,10.242-5.215.789-1.431,1.11-3.169,2.34-4.239s2.821-1.257,3.5-2.541-.08-2.968.147-4.453,1.524-2.674,1.939-4.239c.99-3.61-3.222-6.579-3.8-10.269-.829-5.349,5.91-9.36,5.629-14.708-.588-11.62-.963-23.293-1.564-34.913a251.731,251.731,0,0,1-.321-31.276c.468-6.485,1.337-13.278-1.043-19.308-3.423-8.5-12.863-13.278-22-14.187s-18.239,1.257-27.291,2.674a172.487,172.487,0,0,1-45.4.949Z" transform="translate(85.19 83.111)" fill="#3f3d56"/>
    <circle id="Elipse_16" data-name="Elipse 16" cx="21.421" cy="21.421" r="21.421" transform="translate(391.44 510.894)" fill="#fbbebe"/>
    <path id="Trazado_125" data-name="Trazado 125" d="M315.577,508.268a9.132,9.132,0,0,1-8.732,5.522c-.776,3.209,1.083,6.445,3.209,8.972a38.082,38.082,0,0,0,36.45,12.5,17.986,17.986,0,0,0,7.18-3,15.925,15.925,0,0,0,5.482-9.494,47.2,47.2,0,0,0,.522-11.165,2.888,2.888,0,0,0-.588-2.059,2.942,2.942,0,0,0-1.872-.615c-4.52-.4-9.24-.575-13.211-2.795s-6.793-7.234-4.881-11.352c-.308.642-8.116.949-9.146,1.083-3.223.455-6.445.963-9.654,1.551a17.554,17.554,0,0,0-4.533.856c-1.939,1-1.217.508-.762,2.327C315.724,503.388,316.727,505.38,315.577,508.268Z" transform="translate(88.566 49.465)" fill="#fbbebe"/>
    <path id="Trazado_126" data-name="Trazado 126" d="M351.523,518.541a35.472,35.472,0,0,1-8.571-.949,12.035,12.035,0,0,1-7.033-4.693c-.99-1.5-1.631-3.383-3.209-4.225-2.581-1.337-5.522.923-7.582,3a27.542,27.542,0,0,1-6.445,5.188c-2.862,1.511-6.2,2.046-8.905,3.824a22.384,22.384,0,0,0-5.349,5.776l-18.947,25.807c-7.608,10.376-14.227,21.515-21.006,32.466-5.87,9.48-8.945,20.391-13.371,30.62a3.423,3.423,0,0,0-.414,2.059c.16.7,1,1.257,1.591.856-1.992,1.979-.241,5.349-.709,8.13a9.975,9.975,0,0,1-3.182,4.987,25.138,25.138,0,0,1,8.825.415,27.05,27.05,0,0,1,8.344,4.011c1.618-.254,1.471-3.129,2.674-4.2.722-.628,1.792-.548,2.741-.735,3.57-.7,4.988-4.988,7.729-7.408,2.286-2.019,5.522-2.674,7.943-4.573,3.931-3.089,4.774-8.584,6.833-13.144,1.752-3.864,4.506-7.234,6.044-11.192,1-2.567,1.484-5.349,2.915-7.715,2.286-3.824,6.592-5.857,10.7-7.688,2.594-1.163,5.349-2.367,8.143-2.18-.147,6.218-.936,12.342.415,18.412.468,2.139,1.123,4.225,1.685,6.351,2.554,9.574,3.156,19.549,3.276,29.417a89.506,89.506,0,0,1,18.72-2.246c4.961-.147,9.908.495,14.869.4,5.883-.107,11.7-1.244,17.583-1.645s12.034,0,17.236,2.674a163.741,163.741,0,0,1,.709-25.406l1.417-13.291a81.66,81.66,0,0,1,1.779-11.473c.776-3.049,1.9-5.99,2.755-9.026,3.009-10.7,2.46-22.116,1.885-33.255-.294-5.723-2.5-11.352-5.094-16.447a44.517,44.517,0,0,0-3.209-5.456,31.6,31.6,0,0,0-27.625-12.97,5.59,5.59,0,0,0-1.979.428,6.592,6.592,0,0,0-2.527,3.009,32.759,32.759,0,0,1-11.646,12.088Z" transform="translate(68.919 52.216)" fill="#3f3d56"/>
    <path id="Trazado_127" data-name="Trazado 127" d="M307.413,499.477c.6-1.337,2.22-1.832,3.209-2.9,1.9-2.032,1.043-5.282,1.337-8.023.481-4.011,3.811-7.368,7.622-8.8a24.63,24.63,0,0,1,12.034-.762,11.647,11.647,0,0,1,5.429,1.805c.7.508,1.337,1.163,1.992,1.631a5.349,5.349,0,0,0,7.274-1.7c-4.733-5.7-9.975-11.713-17.169-13.465a35.21,35.21,0,0,0-7.5-.709c-3.329-.067-6.766-.12-9.841,1.15-4.185,1.725-7.127,5.7-8.638,9.975a48.494,48.494,0,0,0-2.1,13.371,50.375,50.375,0,0,0,0,9.093,25.139,25.139,0,0,0,4.466,11.459,3.464,3.464,0,0,0,1.337,1.244C312.962,515.523,306.918,500.587,307.413,499.477Z" transform="translate(86.608 39.937)" fill="#3f3d56"/>
    <path id="Trazado_128" data-name="Trazado 128" d="M346.739,480.892c-.735-6.3-5.228-11.5-10-15.685a36.878,36.878,0,0,0-13.438-8.09c-5.041-1.484-10.844-1.163-15.163,1.845-3.477,2.42-5.683,6.271-7.381,10.149a31.945,31.945,0,0,0-3.223,14.709c.334,5.054,2.795,10.176,7.18,12.729,1.578-2.327,4.319-3.53,6.953-4.479a340.413,340.413,0,0,1,35.073-11.179Z" transform="translate(85.484 36.474)" fill="#fed253"/>
    <path id="Trazado_129" data-name="Trazado 129" d="M304.367,472.72c.428,0,.709.441.923.8a33.886,33.886,0,0,1,2.795,5.349c-1.565.334-4.252.709-5.028-.669C302.642,477.507,303.136,472.653,304.367,472.72Z" transform="translate(87.301 42.024)" opacity="0.1"/>
    <path id="Trazado_130" data-name="Trazado 130" d="M326.966,472.125c-.321.308-.7-.321-.7-.776v-5.188a.762.762,0,0,1,.094-.415.629.629,0,0,1,.441-.214c1.083-.12,1.979.8,2.674,1.685a28.238,28.238,0,0,1,2.741,4.56l-5.656-.174" transform="translate(95.175 39.598)" opacity="0.1"/>
    <path id="Trazado_131" data-name="Trazado 131" d="M390.38,543.376a34.984,34.984,0,0,1,3.931-3.222c3.7-2.474,8.183-3.45,12.342-5.028s8.384-4.132,10-8.277a19.657,19.657,0,0,0,.776-8.023,8.021,8.021,0,0,0-.588-3.3,6.564,6.564,0,0,0-2.113-2.3c-5.643-4.172-13.211-4.506-20.218-4.078A126.722,126.722,0,0,0,349.838,520.3a3.877,3.877,0,0,0-1.872,1.337,3.824,3.824,0,0,0-.361,1.859,30.754,30.754,0,0,0,1.511,11.646c1.845,4.76,5.643,8.6,7.234,13.452.722,2.18.963,4.493,1.591,6.686a9.36,9.36,0,0,0,3.757,5.589c5.282,3.156,10.269-1.083,13.933-4.372Z" transform="translate(102.348 54.258)" fill="#3f3d56"/>
    <path id="Trazado_132" data-name="Trazado 132" d="M339.931,564.654l-6.779-14.789a51.747,51.747,0,0,1-2.567-6.325c-.776-2.581-1.15-5.255-1.872-7.849-2.38-8.638-8.384-15.832-11.312-24.3a4.612,4.612,0,0,0-1.1-2.046,3.57,3.57,0,0,0-2.982-.535c-4.092.709-7.287,3.824-11.031,5.589-1.738.8-3.61,1.337-5.349,2.26a6.686,6.686,0,0,0-3.583,4.265c-.415,2.046.6,4.011,1.457,6,3.637,8.21,4.466,17.383,4.627,26.368.12,6.044-.187,12.529-3.757,17.383-6.859,9.36-2.474,23.106.094,34.431.308,1.337.669,2.781.883,4.2a38.6,38.6,0,0,1,.308,5.349c0,6-.334,12.195-2.848,17.637a19.734,19.734,0,0,0,8.023,2.273q11.647,1.484,23.387,2.086a25.489,25.489,0,0,0,7.341-.374,13.371,13.371,0,0,0,9.881-13.1c.428,3.7,1.217,7.729,3.9,10.3s6.605,2.955,10.256,3.156a190.669,190.669,0,0,0,30.888-.869,5.346,5.346,0,0,0,1.9-.441c1.979-.99,2.086-3.717,1.925-5.91-.294-4.1-.6-8.21-1.1-12.288a50.289,50.289,0,0,1-.642-7.862,45.238,45.238,0,0,1,1.337-8.023c1.792-8.344,3.209-16.861,2.607-25.406a42.878,42.878,0,0,1-.254-6.271c.348-4.72,2.835-9.213,2.367-13.906-1.337-13.8-2.42-27.959-6.271-41.277-.7-2.38-1.578-4.934-3.65-6.3-2.674-1.792-6.432-.856-9.494-1.992a23.744,23.744,0,0,1-4.078-2.42,18.721,18.721,0,0,0-9.213-2.835c-2.46-.094-5.2.455-6.686,2.434a9.708,9.708,0,0,0-1.337,3.65c-1.939,8.156-4.212,16.219-6.485,24.282l-2.18,7.729-5.843,20.752C340.132,561.886,340.52,562.568,339.931,564.654Z" transform="translate(83.627 51.499)" fill="#6c63ff"/>
    <path id="Trazado_133" data-name="Trazado 133" d="M348.766,400.25,478.107,536.17V547.7H420.437l-97.2-126.854" transform="translate(108.983 134.939)" fill="#f1c0c0"/>
    <path id="Trazado_134" data-name="Trazado 134" d="M348.766,400.25,478.107,536.17V547.7H420.437l-97.2-126.854" transform="translate(108.983 134.939)" opacity="0.1"/>
    <path id="Trazado_135" data-name="Trazado 135" d="M325.3,414.31l.414.147L421.266,531.43h56.842v11.526H420.437L323.24,416.1Z" transform="translate(108.983 139.68)" opacity="0.1"/>
    <path id="Trazado_136" data-name="Trazado 136" d="M349.912,505.619c-4.68,2.046-9.881,4.667-11.285,9.587a4.8,4.8,0,0,0,4.733,6.432,16.044,16.044,0,0,0,6.432-1.177l27.612-9.119c.749-.241,1.6-.6,1.792-1.337a2.3,2.3,0,0,0-.267-1.337c-.856-2.086-1.7-6.351-3.49-7.809-1.471-1.177-4.386-.762-6.164-.735C362.427,500.177,356,502.945,349.912,505.619Z" transform="translate(99.253 51.232)" fill="#6c63ff"/>
    <path id="Trazado_137" data-name="Trazado 137" d="M366.9,513.128a44.408,44.408,0,0,1,13.706,2.126,24.415,24.415,0,0,1,11.352,7.755,8.5,8.5,0,0,1,1.792,3.5c.267,1.337,4.626,2.139,3.664,3.049,2.928-.468,2.233.909,5.2.882s6.178-.789,7.956-3.156a10.337,10.337,0,0,0,1.564-6.539,11.138,11.138,0,0,0-.883-4.626c-1.337-2.808-4.413-4.319-7.247-5.616l-23.881-10.924a15.861,15.861,0,0,0-4.412-1.564,16.5,16.5,0,0,0-3.891.094L361,499.356a16.22,16.22,0,0,1,7.394,14.267" transform="translate(106.884 50.529)" fill="#3f3d56"/>
  </g>
</svg>
