<svg id="Instagram_white" xmlns="http://www.w3.org/2000/svg" width="32" height="32" viewBox="0 0 32 32">
  <g id="Instagram">
    <path id="Combined-Shape" d="M0,16A16,16,0,1,1,16,32,16,16,0,0,1,0,16ZM16,7.467c-2.318,0-2.608.01-3.519.052a6.263,6.263,0,0,0-2.071.4,4.365,4.365,0,0,0-2.5,2.5,6.234,6.234,0,0,0-.4,2.071c-.041.91-.051,1.2-.051,3.519s.01,2.608.052,3.518a6.272,6.272,0,0,0,.4,2.071,4.367,4.367,0,0,0,2.5,2.5,6.268,6.268,0,0,0,2.071.4c.91.041,1.2.052,3.518.052s2.608-.01,3.518-.052a6.272,6.272,0,0,0,2.072-.4,4.373,4.373,0,0,0,2.5-2.5,6.325,6.325,0,0,0,.4-2.071c.041-.91.052-1.2.052-3.518s-.011-2.608-.052-3.519a6.321,6.321,0,0,0-.4-2.071,4.366,4.366,0,0,0-2.5-2.5,6.283,6.283,0,0,0-2.073-.4c-.91-.041-1.2-.052-3.518-.052Z" fill="#fff"/>
    <path id="Combined-Shape-2" data-name="Combined-Shape" d="M19.738,13.506H20.5c2.278,0,2.548.008,3.448.049a4.725,4.725,0,0,1,1.584.294,2.827,2.827,0,0,1,1.619,1.62,4.715,4.715,0,0,1,.294,1.584c.041.9.05,1.17.05,3.447s-.009,2.548-.05,3.447a4.72,4.72,0,0,1-.294,1.584,2.83,2.83,0,0,1-1.619,1.619,4.708,4.708,0,0,1-1.584.294c-.9.041-1.17.05-3.448.05s-2.549-.009-3.448-.05a4.733,4.733,0,0,1-1.585-.294,2.827,2.827,0,0,1-1.62-1.619,4.715,4.715,0,0,1-.294-1.584c-.041-.9-.049-1.17-.049-3.449s.008-2.548.049-3.447a4.724,4.724,0,0,1,.294-1.584,2.828,2.828,0,0,1,1.62-1.62,4.714,4.714,0,0,1,1.585-.294c.787-.036,1.092-.046,2.683-.048Zm5.321,1.417a1.024,1.024,0,1,0,1.024,1.024,1.024,1.024,0,0,0-1.024-1.024Zm-4.555,1.2A4.382,4.382,0,1,0,24.885,20.5,4.382,4.382,0,0,0,20.5,16.119Z" transform="translate(-4.503 -4.501)" fill="#fff"/>
    <path id="Shape" d="M22.579,19.733a2.844,2.844,0,1,1-2.844,2.844A2.844,2.844,0,0,1,22.579,19.733Z" transform="translate(-6.578 -6.578)" fill="#fff"/>
  </g>
</svg>
