<svg xmlns="http://www.w3.org/2000/svg" width="64" height="55.29" viewBox="0 0 64 55.29">
  <g id="left-quotes-sign" transform="translate(0 -34.571)">
    <path id="Trazado_72" data-name="Trazado 72" d="M.014,74.626a15.275,15.275,0,1,0,10.3-14.4C13.743,40.56,29.076,27.88,14.862,38.316-.9,49.889,0,74.16.014,74.605.014,74.612.014,74.618.014,74.626Z" transform="translate(0)" fill="#3fc1c9"/>
    <path id="Trazado_73" data-name="Trazado 73" d="M266.074,74.626a15.275,15.275,0,1,0,10.3-14.4c3.428-19.663,18.762-32.344,4.548-21.907-15.761,11.573-14.866,35.844-14.848,36.289C266.075,74.612,266.074,74.618,266.074,74.626Z" transform="translate(-232.544)" fill="#3fc1c9"/>
  </g>
</svg>
