<svg xmlns="http://www.w3.org/2000/svg" width="32" height="27.645" viewBox="0 0 32 27.645">
  <g id="left-quotes-sign" transform="translate(0 -34.571)">
    <g id="Grupo_1" data-name="Grupo 1" transform="translate(0 34.571)">
      <path id="Trazado_72" data-name="Trazado 72" d="M.007,54.6a7.638,7.638,0,1,0,5.15-7.2c1.714-9.832,9.381-16.172,2.274-10.954C-.45,42.23,0,54.366.007,54.588.007,54.591.007,54.595.007,54.6Z" transform="translate(0 -34.571)" fill="#3fc1c9"/>
      <path id="Trazado_73" data-name="Trazado 73" d="M266.068,54.6a7.638,7.638,0,1,0,5.15-7.2c1.714-9.832,9.381-16.172,2.274-10.954-7.881,5.786-7.433,17.922-7.424,18.144C266.068,54.591,266.068,54.595,266.068,54.6Z" transform="translate(-249.302 -34.571)" fill="#3fc1c9"/>
    </g>
  </g>
</svg>
