<svg xmlns="http://www.w3.org/2000/svg" width="107.572" height="24" viewBox="0 0 107.572 24">
  <g id="logo" transform="translate(0 -1)">
    <path id="Trazado_1" data-name="Trazado 1" d="M21.243,29.585a2.66,2.66,0,0,1,0,.989q-.587,0-1.452-.031H18.122q-.8-.031-1.3-.031t-.865.031h-.865L9.378,22.108a3.059,3.059,0,0,0-.927-1.02,2.554,2.554,0,0,0-1.112-.309l-.8-.093v6.025A14.461,14.461,0,0,0,6.6,28.226a1.32,1.32,0,0,0,.309.8,1.884,1.884,0,0,0,.865.371q.618.093,1.7.185a2.66,2.66,0,0,1,0,.989q-.618,0-1.483-.031H6.257q-.865-.031-1.452-.031-.556,0-1.452.031H1.56q-.9.031-1.514.031a2.657,2.657,0,0,1,0-.989q1.483-.124,2.132-.247a1,1,0,0,0,.8-.618,5.935,5.935,0,0,0,.154-1.607v-14.4a6.352,6.352,0,0,0-.185-1.823,1.057,1.057,0,0,0-.8-.742,11.016,11.016,0,0,0-2.1-.278,2.657,2.657,0,0,1,0-.989q.587,0,1.514.031.958,0,1.854.031H6.2l1.761-.062q.9-.031,1.39-.031a11.981,11.981,0,0,1,3.615.525,5.646,5.646,0,0,1,2.719,1.73,4.6,4.6,0,0,1,1.051,3.183,5.573,5.573,0,0,1-1.205,3.522,7.086,7.086,0,0,1-3.739,2.317v.093a5.734,5.734,0,0,1,1.051,1.236l3.244,4.7q.8,1.143,1.329,1.792a5.672,5.672,0,0,0,1.051.989,3.3,3.3,0,0,0,1.143.433Q20.254,29.492,21.243,29.585ZM6.535,10.243V19.42q.4.062.711.093t.587.031a5.516,5.516,0,0,0,3.8-1.236,4.571,4.571,0,0,0,1.421-3.646,4.425,4.425,0,0,0-1.236-3.368,4.943,4.943,0,0,0-3.584-1.174q-.309,0-.773.031Q7.029,10.181,6.535,10.243Z" transform="translate(0 -5.914)" fill="#f5f5f5"/>
    <path id="Trazado_2" data-name="Trazado 2" d="M42.29,35.239a6.486,6.486,0,0,1-3.708-1.02A6.622,6.622,0,0,1,36.265,31.5a9.217,9.217,0,0,1-.772-3.8,9.7,9.7,0,0,1,.8-3.955,7.17,7.17,0,0,1,2.41-2.935,6.349,6.349,0,0,1,3.831-1.143A5.478,5.478,0,0,1,46.77,21.3a5.768,5.768,0,0,1,1.545,4.171,4.518,4.518,0,0,1-.031.556,1.921,1.921,0,0,1-.031.371L38.52,26.31v.216a7.4,7.4,0,0,0,1.39,4.758,4.713,4.713,0,0,0,3.893,1.73,7.4,7.4,0,0,0,4.14-1.359,3.2,3.2,0,0,1,.463.711A8.058,8.058,0,0,1,42.29,35.239Zm-.124-14.4a3.048,3.048,0,0,0-2.317,1.081,5.664,5.664,0,0,0-1.236,3.244l6.4-.124a.344.344,0,0,0,.031-.155v-.154a4.908,4.908,0,0,0-.742-2.781A2.362,2.362,0,0,0,42.166,20.841Z" transform="translate(-16.668 -10.24)" fill="#f5f5f5"/>
    <path id="Trazado_3" data-name="Trazado 3" d="M64.551,35.239a4.061,4.061,0,0,1-2.688-.927,3.328,3.328,0,0,1-1.081-2.626q0-4.079,8.312-5.129V25.043q.031-.772.031-1.638a1.944,1.944,0,0,0-.8-1.669,2.922,2.922,0,0,0-1.885-.618,3.34,3.34,0,0,0-1.36.247,3.759,3.759,0,0,1-.309,1.452,3.32,3.32,0,0,1-.834,1.267,1.932,1.932,0,0,1-1.329.494,1.532,1.532,0,0,1-1.081-.371,1.364,1.364,0,0,1-.371-.958,1.912,1.912,0,0,1,.68-1.39,5.954,5.954,0,0,1,1.792-1.143,12.142,12.142,0,0,1,2.256-.772,9.222,9.222,0,0,1,2.1-.278,5.045,5.045,0,0,1,2.1.433,3.482,3.482,0,0,1,1.576,1.236,3.2,3.2,0,0,1,.618,2.008q0,.742-.031,1.947-.031,1.174-.062,2.534,0,1.329-.031,2.534T72.121,32.3q0,.989.865.989a6.187,6.187,0,0,0,1.7-.371.729.729,0,0,1,.154.34,2.848,2.848,0,0,1,.093.34,4.869,4.869,0,0,1-1.638,1.205,4.147,4.147,0,0,1-1.7.371,2.432,2.432,0,0,1-2.565-2.039A6.51,6.51,0,0,1,64.551,35.239Zm-.433-4.233a2.332,2.332,0,0,0,.556,1.669,2.031,2.031,0,0,0,1.452.556,3.652,3.652,0,0,0,1.236-.247q.711-.247,1.669-.68l.062-4.635a8.593,8.593,0,0,0-3.924,1.205A2.605,2.605,0,0,0,64.118,31.006Z" transform="translate(-28.594 -10.24)" fill="#f5f5f5"/>
    <path id="Trazado_4" data-name="Trazado 4" d="M93.13,26.709q-.9,0-1.823-.027t-2.07-.027q-1.143,0-2.039.027t-1.823.027a1.944,1.944,0,0,1,0-.844,10.393,10.393,0,0,0,1.545-.163.892.892,0,0,0,.649-.545,4.005,4.005,0,0,0,.154-1.307V10.208a3.2,3.2,0,0,0-.185-1.253.979.979,0,0,0-.711-.6,6.477,6.477,0,0,0-1.607-.272,1.481,1.481,0,0,1,0-.735q1.236-.136,2.534-.408a20.343,20.343,0,0,0,2.657-.817l.525.163q-.031.6-.062,1.362v15.93A6.593,6.593,0,0,0,91,25.1a.88.88,0,0,0,.618.6,10.2,10.2,0,0,0,1.514.163A2.9,2.9,0,0,1,93.13,26.709Z" transform="translate(-39.739 -2.049)" fill="#f5f5f5"/>
    <path id="Trazado_5" data-name="Trazado 5" d="M104.859,35.095a2.722,2.722,0,0,1,0-.678q1-.106,1.419-.191a.674.674,0,0,0,.529-.423,3.977,3.977,0,0,0,.106-1.08V22.877a5.336,5.336,0,0,0-.106-1.27.681.681,0,0,0-.551-.487,7.751,7.751,0,0,0-1.4-.212,2.722,2.722,0,0,1,0-.678q.551,0,.953.021h.847q.423,0,1.016.021h4.637q1.461-.021,2.435-.021.974-.021,1.144-.021.085.783.19,1.609.128.826.275,1.757a2.887,2.887,0,0,1-.7,0,5.6,5.6,0,0,0-.593-1.122,2.96,2.96,0,0,0-.7-.741,2.812,2.812,0,0,0-.974-.445,5.39,5.39,0,0,0-1.376-.148h-2.774v5.781h1.165a7.079,7.079,0,0,0,1.546-.127,1.231,1.231,0,0,0,.783-.614,5.013,5.013,0,0,0,.4-1.525,2.054,2.054,0,0,1,.72,0q-.022,1.143-.043,1.652v1.1l.043,2.8a2.049,2.049,0,0,1-.72,0,4.943,4.943,0,0,0-.381-1.609,1.145,1.145,0,0,0-.763-.614,5.866,5.866,0,0,0-1.4-.127h-1.355v5.76c.014.282.028.466.043.551h2.9a6.806,6.806,0,0,0,1.694-.169,2.89,2.89,0,0,0,1.08-.551,3.925,3.925,0,0,0,.7-.8,10.082,10.082,0,0,0,.762-1.355,2.55,2.55,0,0,1,.656,0q-.211,1.186-.36,2.139t-.254,1.652h-4.32q-1.122-.021-2.054-.021h-1.461q-1,0-1.631.021h-1.1Q105.431,35.095,104.859,35.095Z" transform="translate(-49.19 -10.465)" fill="#f5f5f5"/>
    <path id="Trazado_6" data-name="Trazado 6" d="M128.393,34.678a4.519,4.519,0,0,0,1.016,2.139,2.4,2.4,0,0,0,1.8.72,2.465,2.465,0,0,0,1.4-.381,1.423,1.423,0,0,0,.571-1.249,1.536,1.536,0,0,0-.317-1.016,2.228,2.228,0,0,0-.847-.635q-.529-.275-1.207-.55-.784-.318-1.483-.678a3.849,3.849,0,0,1-1.122-.932,2.388,2.388,0,0,1-.424-1.461,2.581,2.581,0,0,1,.529-1.673,3.388,3.388,0,0,1,1.4-1.016,5.02,5.02,0,0,1,1.842-.339,7.517,7.517,0,0,1,.974.064q.488.063.53.063c.282.042.544.071.783.085h.466a1.333,1.333,0,0,0,.212-.021q0,.678.021,1.376t.085,1.482l-.4.042a2.736,2.736,0,0,1-.339-.021,3.422,3.422,0,0,0-.826-1.715,1.989,1.989,0,0,0-1.5-.551,2.339,2.339,0,0,0-1.4.381,1.248,1.248,0,0,0-.508,1.059,1.277,1.277,0,0,0,.338.91,2.97,2.97,0,0,0,.826.572q.487.233.932.4a13.25,13.25,0,0,1,1.567.72,3.445,3.445,0,0,1,1.228,1,2.585,2.585,0,0,1,.487,1.652,2.838,2.838,0,0,1-.572,1.821,3.291,3.291,0,0,1-1.419,1.038,5.256,5.256,0,0,1-1.821.318,7.236,7.236,0,0,1-1.1-.085q-.529-.085-.572-.085t-.36-.042q-.3-.042-.677-.085a5.509,5.509,0,0,0-.635-.042q0-.656-.064-1.461-.042-.8-.106-1.779.233-.021.381-.021A1.193,1.193,0,0,1,128.393,34.678Z" transform="translate(-59.528 -13.415)" fill="#f5f5f5"/>
    <path id="Trazado_7" data-name="Trazado 7" d="M146.1,36.88a3.131,3.131,0,0,1-2.012-.593,2.152,2.152,0,0,1-.741-1.757q0-1.863.021-3.6.042-1.736.064-3.346h-1.609a1.291,1.291,0,0,1,0-.572,6.2,6.2,0,0,0,3.155-2.9,2.736,2.736,0,0,1,.339.021,1.825,1.825,0,0,1,.3.021q-.022.551-.043,1.165,0,.614-.021,1.292h3.218a3.731,3.731,0,0,1,0,.974h-3.218q-.042,1.482-.064,3.134V34q0,1.715,1.779,1.715a2.664,2.664,0,0,0,1.418-.4,1.27,1.27,0,0,1,.233.635A4.591,4.591,0,0,1,146.1,36.88Z" transform="translate(-66.081 -12.018)" fill="#f5f5f5"/>
    <path id="Trazado_8" data-name="Trazado 8" d="M157.774,38.278a2.782,2.782,0,0,1-1.842-.635,2.28,2.28,0,0,1-.741-1.8q0-2.8,5.7-3.515V31.29q.021-.529.021-1.122a1.333,1.333,0,0,0-.55-1.143,2,2,0,0,0-1.292-.423,2.291,2.291,0,0,0-.932.169,2.58,2.58,0,0,1-.212,1,2.273,2.273,0,0,1-.572.868,1.323,1.323,0,0,1-.91.339,1.048,1.048,0,0,1-.741-.254.933.933,0,0,1-.254-.656,1.311,1.311,0,0,1,.466-.953,4.09,4.09,0,0,1,1.228-.783,8.337,8.337,0,0,1,1.546-.529,6.322,6.322,0,0,1,1.439-.191,3.456,3.456,0,0,1,1.44.3,2.386,2.386,0,0,1,1.08.847,2.189,2.189,0,0,1,.424,1.376q0,.508-.021,1.334-.022.8-.043,1.736,0,.911-.021,1.736t-.022,1.334q0,.678.593.678a4.243,4.243,0,0,0,1.165-.254.5.5,0,0,1,.106.233,2.024,2.024,0,0,1,.064.233,3.339,3.339,0,0,1-1.122.826,2.845,2.845,0,0,1-1.165.254,1.667,1.667,0,0,1-1.758-1.4A4.46,4.46,0,0,1,157.774,38.278Zm-.3-2.9a1.6,1.6,0,0,0,.381,1.143,1.392,1.392,0,0,0,1,.381,2.507,2.507,0,0,0,.847-.169q.487-.169,1.143-.466l.043-3.176a5.886,5.886,0,0,0-2.689.826A1.785,1.785,0,0,0,157.478,35.377Z" transform="translate(-74.504 -13.415)" fill="#f5f5f5"/>
    <path id="Trazado_9" data-name="Trazado 9" d="M176.286,36.88a3.133,3.133,0,0,1-2.012-.593,2.154,2.154,0,0,1-.741-1.757q0-1.863.022-3.6.042-1.736.063-3.346h-1.609a1.31,1.31,0,0,1,0-.572,6.2,6.2,0,0,0,3.155-2.9,2.725,2.725,0,0,1,.338.021,1.821,1.821,0,0,1,.3.021q-.021.551-.042,1.165,0,.614-.021,1.292h3.218a3.777,3.777,0,0,1,0,.974h-3.218q-.042,1.482-.064,3.134V34q0,1.715,1.778,1.715a2.668,2.668,0,0,0,1.419-.4,1.275,1.275,0,0,1,.233.635A4.593,4.593,0,0,1,176.286,36.88Z" transform="translate(-81.219 -12.018)" fill="#f5f5f5"/>
    <path id="Trazado_10" data-name="Trazado 10" d="M189.906,38.278a4.446,4.446,0,0,1-2.541-.7,4.538,4.538,0,0,1-1.588-1.863,6.309,6.309,0,0,1-.53-2.6,6.644,6.644,0,0,1,.551-2.71,4.913,4.913,0,0,1,1.652-2.012,4.348,4.348,0,0,1,2.626-.783,3.755,3.755,0,0,1,2.9,1.122,3.954,3.954,0,0,1,1.058,2.859,3.153,3.153,0,0,1-.021.381,1.345,1.345,0,0,1-.021.254l-6.67-.064v.148a5.067,5.067,0,0,0,.953,3.261,3.23,3.23,0,0,0,2.668,1.186,5.069,5.069,0,0,0,2.837-.932,2.2,2.2,0,0,1,.317.487A5.522,5.522,0,0,1,189.906,38.278Zm-.085-9.867a2.089,2.089,0,0,0-1.588.741,3.88,3.88,0,0,0-.847,2.223l4.383-.085a.241.241,0,0,0,.021-.106v-.106a3.362,3.362,0,0,0-.508-1.906A1.619,1.619,0,0,0,189.822,28.41Z" transform="translate(-86.527 -13.415)" fill="#f5f5f5"/>
    <path id="Trazado_11" data-name="Trazado 11" d="M191.625,9.733,183.158,1,179.6,4.678l1.951,1.977,1.6-1.663,4.6,4.741Z" transform="translate(-84.269)" fill="#f5f5f5"/>
    <path id="Trazado_12" data-name="Trazado 12" d="M176.811,9.733,168.343,1l-8.467,8.733h3.871l4.6-4.741,4.6,4.741Z" transform="translate(-76.378)" fill="#3fc1c9"/>
  </g>
</svg>
