<svg xmlns="http://www.w3.org/2000/svg" width="48" height="32" viewBox="0 0 48 32">
  <g id="menu-btn" transform="translate(-2557 134)">
    <path id="Trazado_141" data-name="Trazado 141" d="M4,0H44a4,4,0,0,1,0,8H4A4,4,0,0,1,4,0Z" transform="translate(2557 -134)" fill="#fff"/>
    <path id="Trazado_139" data-name="Trazado 139" d="M4,0H44a4,4,0,0,1,0,8H4A4,4,0,0,1,4,0Z" transform="translate(2557 -122)" fill="#fff"/>
    <path id="Trazado_140" data-name="Trazado 140" d="M4,0H44a4,4,0,0,1,0,8H4A4,4,0,0,1,4,0Z" transform="translate(2557 -110)" fill="#fff"/>
  </g>
</svg>
